<svg width="37" height="48" viewBox="0 0 37 48" fill="none" xmlns="http://www.w3.org/2000/svg">
<g clip-path="url(#clip0_252_442)">
<path d="M0.00446129 23.9845C0.00446129 16.1652 0.00446129 8.3459 0.00446129 0.524383C0.00446129 0.451367 0.0110991 0.376139 0.00446129 0.303124C-0.0176646 0.084077 0.0597761 0.00221107 0.298736 0.00221107C9.08273 0.00884885 17.8645 0.00884885 26.6485 0.00884885C27.0711 0.00884885 27.4937 -0.0154897 27.9141 0.0176992C28.0978 0.0309748 28.3168 0.112841 28.4429 0.241171C30.983 2.76132 33.512 5.29695 36.0498 7.8193C36.2888 8.05605 36.3972 8.29501 36.3972 8.63796C36.3883 21.6259 36.3906 34.6116 36.3906 47.5995C36.3906 47.9956 36.3906 47.9956 36.0056 47.9956C24.1925 47.9956 12.3817 47.9956 0.568673 47.9956C-0.0331528 47.9956 0.00446129 48.1128 0.00446129 47.4181C0.00446129 39.6076 0.00446129 31.7972 0.00446129 23.9867V23.9845ZM1.52894 24C1.52894 31.3502 1.52894 38.7027 1.52894 46.0529C1.52894 46.3361 1.66907 46.4777 1.94933 46.4777C12.7888 46.4777 23.6261 46.4777 34.4656 46.4777C34.8993 46.4777 34.9037 46.4733 34.9037 46.0286C34.9037 34.043 34.9037 22.0573 34.9015 10.0717C34.9015 9.88808 34.8993 9.70443 34.9015 9.52079C34.9037 9.31944 34.8019 9.23979 34.6094 9.25085C34.3904 9.26192 34.1691 9.2774 33.9501 9.2774C31.8481 9.27962 29.7461 9.2774 27.6442 9.27962C27.1441 9.27962 27.1397 9.27961 27.1375 8.77736C27.1286 6.43643 27.1176 4.09772 27.1198 1.7568C27.1198 1.51562 27.0003 1.51562 26.8277 1.51562C18.5504 1.51784 10.2709 1.51784 1.99358 1.51784C1.68382 1.51784 1.52894 1.66829 1.52894 1.96921C1.52894 9.31059 1.52894 16.6542 1.52894 23.9956V24ZM33.6669 7.76399L33.7377 7.68655C32.0627 6.00719 30.39 4.33004 28.6752 2.61307C28.6487 2.72813 28.6332 2.76132 28.6332 2.7945C28.6332 4.35438 28.6332 5.91205 28.631 7.47193C28.631 7.70204 28.7261 7.77063 28.9452 7.76841C30.2927 7.76178 31.6401 7.7662 32.9898 7.76841C33.2155 7.76841 33.4412 7.76841 33.6669 7.76841V7.76399Z" fill="#CC5A3C" stroke="#CC5A3C"/>
<path d="M18.5947 27.0777C14.851 27.0777 11.1073 27.0755 7.36354 27.0843C7.08476 27.0843 6.98298 27.0047 6.99847 26.7281C7.01617 26.4161 7.0051 26.1042 7.00289 25.7922C7.00289 25.6528 7.03387 25.5798 7.20645 25.5798C14.3177 25.5776 21.429 25.5687 28.5403 25.5621C29.0093 25.5621 29.4762 25.5709 29.9431 25.5621C30.1466 25.5577 30.2241 25.6285 30.2174 25.832C30.2064 26.1241 30.2086 26.4184 30.2108 26.7126C30.213 27.0821 30.2152 27.0821 29.8546 27.0821C27.4495 27.0821 25.0466 27.0821 22.6415 27.0799C21.2918 27.0799 19.9443 27.0799 18.5947 27.0799V27.0777Z" fill="black"/>
<path d="M18.5593 23.2234C14.8333 23.2234 11.1073 23.2234 7.38126 23.2234C7.1246 23.2234 6.99627 23.0973 6.99627 22.8451C6.99627 22.5419 7.00069 22.2388 6.99627 21.9357C6.99406 21.7631 7.06043 21.6813 7.23965 21.6901C7.39454 21.699 7.55163 21.6923 7.70651 21.6923C15.0767 21.6923 22.4446 21.6923 29.8147 21.6923C30.2174 21.6923 30.2263 21.71 30.1997 22.1149C30.182 22.3981 30.1798 22.6836 30.182 22.9668C30.182 23.1504 30.1245 23.2389 29.9276 23.2234C29.755 23.2102 29.578 23.2212 29.4054 23.2212C25.79 23.2212 22.1747 23.2212 18.5571 23.2212L18.5593 23.2234Z" fill="black"/>
<path d="M18.6367 13.9703C22.2897 13.9703 25.9427 13.9703 29.5935 13.9703C30.2506 13.9703 30.2484 13.9703 30.1997 14.6297C30.1843 14.831 30.1798 15.0324 30.1843 15.2337C30.1887 15.4306 30.1135 15.5147 29.9077 15.5081C29.5603 15.497 29.2107 15.5037 28.8611 15.5037C21.8671 15.5037 14.8753 15.5037 7.88131 15.5037C7.68882 15.5037 7.49632 15.4838 7.30383 15.4838C7.06044 15.4838 6.98743 15.3576 6.99406 15.1364C7.00292 14.8532 7.00513 14.5677 6.99406 14.2823C6.98079 14.0367 7.08257 13.9703 7.31932 13.9725C11.0918 13.9792 14.862 13.977 18.6345 13.977V13.9703H18.6367Z" fill="black"/>
<path d="M18.6012 19.3204C14.8398 19.3204 11.0784 19.3181 7.31923 19.327C7.05593 19.327 6.9807 19.2385 6.99619 18.9929C7.01389 18.692 7.00946 18.3866 7.00504 18.0857C7.00283 17.8954 7.08027 17.8269 7.27055 17.8357C7.58253 17.849 7.8945 17.8401 8.20648 17.8401C15.4527 17.8401 22.7012 17.8401 29.9474 17.8335C30.1311 17.8335 30.2262 17.88 30.2196 18.0769C30.2085 18.4243 30.1952 18.7738 30.193 19.1212C30.193 19.327 30.0603 19.3226 29.9142 19.3226C29.1354 19.3204 28.3544 19.3226 27.5755 19.3226C24.5841 19.3226 21.5949 19.3226 18.6035 19.3226L18.6012 19.3204Z" fill="black"/>
<path d="M18.7141 40.2714C18.5725 40.1542 18.5127 40.1121 18.4618 40.0612C17.3644 38.9549 16.2692 37.8464 15.1673 36.7446C15.0213 36.5985 15.0213 36.4968 15.1651 36.3596C15.4217 36.1118 15.6718 35.8551 15.9196 35.6007C16.0612 35.4568 16.1541 35.5763 16.2404 35.6604C16.6077 36.021 16.9683 36.3861 17.3312 36.749C17.6808 37.1008 18.0326 37.4482 18.3756 37.8044C18.5216 37.9549 18.6167 37.9726 18.7694 37.7933C19.9841 36.3706 21.2099 34.959 22.429 33.5429C22.5905 33.3549 22.7543 33.1668 22.8892 32.9632C22.9888 32.8128 23.0773 32.8106 23.199 32.9146C23.4822 33.1602 23.7654 33.408 24.0486 33.6558C24.1903 33.7797 24.1349 33.897 24.0332 34.012C23.1548 35.021 22.2741 36.0277 21.398 37.0411C20.535 38.0411 19.6788 39.0435 18.8225 40.0502C18.7716 40.1099 18.7495 40.1962 18.7141 40.2737V40.2714Z" fill="black"/>
<path d="M18.5725 9.2818C16.7471 9.2818 14.9195 9.27738 13.0941 9.28623C12.8507 9.28623 12.7666 9.211 12.7799 8.97204C12.7954 8.65121 12.7888 8.33039 12.7799 8.00956C12.7755 7.83255 12.8485 7.75732 13.0233 7.76396C13.1516 7.7706 13.2799 7.76617 13.4083 7.76617C16.9595 7.76617 20.5107 7.76617 24.0619 7.75732C24.3296 7.75732 24.4491 7.81485 24.4292 8.10249C24.4093 8.3857 24.4204 8.67113 24.4358 8.95434C24.4491 9.20215 24.3628 9.28844 24.104 9.28844C22.2587 9.27959 20.4156 9.28401 18.5703 9.28401L18.5725 9.2818Z" fill="black"/>
</g>
<defs>
<clipPath id="clip0_252_442">
<rect width="36.3972" height="48" fill="white"/>
</clipPath>
</defs>
</svg>
