<svg width="48" height="46" viewBox="0 0 48 46" fill="none" xmlns="http://www.w3.org/2000/svg">
<g clip-path="url(#clip0_252_413)">
<path d="M7.06622 2.86626V5.58046C6.87988 5.58046 6.7009 5.58046 6.52436 5.58046C5.74222 5.58536 4.95763 5.55349 4.17794 5.60253C3.35656 5.65402 2.84903 6.21549 2.81716 7.04422C2.79754 7.58118 2.82206 8.12058 2.82206 8.65999C2.82206 18.107 2.82206 27.554 2.82206 37.001C2.82206 37.3565 2.80735 37.712 2.81716 38.0676C2.84167 38.9993 3.39579 39.5607 4.32995 39.5853C4.82768 39.5975 5.3254 39.573 5.82558 39.573C11.0529 39.5755 16.2778 39.5828 21.5052 39.5853C21.6646 39.5853 21.8239 39.5706 22.0593 39.5607C21.9441 39.6882 21.8779 39.7618 21.8092 39.8378C21.0933 40.6273 20.3798 41.4242 19.6516 42.2038C19.556 42.3068 19.3819 42.3902 19.2446 42.3902C13.3871 42.4 7.52962 42.4 1.67214 42.3975C0.713462 42.3975 0.0490088 41.7478 0.00242357 40.7793C-0.00248014 40.6788 0.00242357 40.5758 0.00242357 40.4753C0.00242357 28.547 0.00242357 16.6187 0.00242357 4.69044C0.00242357 4.52861 0.00242357 4.36434 0.0318458 4.20497C0.20838 3.24384 0.686492 2.83438 1.66233 2.83193C3.3394 2.82948 5.01892 2.83929 6.69599 2.84419C6.81613 2.84419 6.93382 2.85645 7.06622 2.8638V2.86626Z" fill="#CC5A3C"/>
<path d="M44.2266 31.1165C44.077 31.2783 44.0108 31.3543 43.9397 31.4254C41.4339 33.9533 38.9257 36.4787 36.4199 39.0066C35.3239 40.1099 34.2206 41.2083 33.132 42.3166C32.3694 43.0938 31.4745 43.6602 30.4374 43.9814C29.236 44.3541 28.0272 44.7022 26.8184 45.0455C26.5978 45.1068 26.355 45.1166 26.1246 45.1117C25.7641 45.1043 25.5851 44.9278 25.568 44.5625C25.5557 44.3222 25.5557 44.0647 25.6195 43.8367C26.0044 42.4588 26.3918 41.0833 26.8184 39.7176C27.0391 39.009 27.4951 38.4304 28.0174 37.9032C31.5309 34.3701 35.0395 30.8321 38.5506 27.2965C38.7933 27.0513 39.0458 26.8135 39.2837 26.5634C39.3965 26.4457 39.4774 26.4555 39.5877 26.5634C41.125 28.0737 42.6648 29.5816 44.2291 31.1165H44.2266Z" fill="#CC5A3C"/>
<path d="M33.9312 26.4826C33.9312 26.1834 33.9312 25.9726 33.9312 25.7593C33.9312 19.5365 33.9312 13.3136 33.9312 7.09083C33.9312 6.31359 33.4164 5.66875 32.7249 5.60746C32.3204 5.57068 31.9134 5.57313 31.5064 5.57313C31.0086 5.57313 30.5109 5.58539 30.0132 5.60746C29.8048 5.61726 29.7263 5.55597 29.7288 5.3353C29.7386 4.57277 29.7361 3.81024 29.7239 3.05017C29.719 2.79763 29.8808 2.83441 30.0279 2.83441C31.5529 2.83195 33.078 2.8295 34.6031 2.8295C34.8777 2.8295 35.1523 2.8246 35.4269 2.84912C36.1968 2.91777 36.7141 3.45963 36.7386 4.23442C36.7533 4.72234 36.7411 5.21025 36.7411 5.69817C36.7435 11.4944 36.746 17.2881 36.7558 23.0843C36.7558 23.3491 36.6749 23.5403 36.4934 23.7316C35.7187 24.5505 34.9586 25.3841 34.1911 26.2104C34.1249 26.2815 34.0563 26.3526 33.9312 26.4826Z" fill="#CC5A3C"/>
<path d="M18.4036 31.0405C15.0078 31.0405 11.6095 31.0405 8.21367 31.0405C8.07146 31.0405 7.92926 31.043 7.78705 31.0282C7.37023 30.9841 7.09808 30.7046 7.08582 30.2853C7.07111 29.8685 7.07356 29.4517 7.08582 29.0349C7.09808 28.6254 7.44624 28.2871 7.87777 28.2454C7.97829 28.2356 8.08127 28.2405 8.1818 28.2405C14.9661 28.2405 21.7479 28.2405 28.5322 28.2405C28.6744 28.2405 28.8191 28.238 28.9564 28.2625C29.4615 28.3533 29.6527 28.5739 29.6674 29.0913C29.6797 29.4664 29.687 29.844 29.6748 30.2191C29.6552 30.8419 29.4541 31.0381 28.8387 31.0405C27.8923 31.0454 26.9483 31.0405 26.0019 31.0405C23.4691 31.0405 20.9364 31.0405 18.406 31.0405H18.4036Z" fill="black"/>
<path d="M18.4306 19.7275C14.9734 19.7275 11.5163 19.7275 8.05921 19.7275C7.35552 19.7275 7.08337 19.4603 7.08091 18.7566C7.08091 18.4526 7.07601 18.1461 7.08091 17.8421C7.09072 17.2708 7.37269 16.9815 7.94642 16.9692C8.40492 16.9594 8.86096 16.9692 9.31946 16.9692C15.7458 16.9692 22.1745 16.9668 28.6009 16.9668C28.7431 16.9668 28.8853 16.9668 29.0275 16.9815C29.3904 17.0231 29.6331 17.2438 29.6552 17.6116C29.6846 18.0971 29.6944 18.5874 29.6748 19.0753C29.6552 19.5191 29.3855 19.7398 28.8951 19.7398C27.9192 19.7398 26.9434 19.7226 25.9676 19.7226C23.4569 19.7202 20.9437 19.7226 18.433 19.7226C18.433 19.7251 18.433 19.73 18.433 19.7324L18.4306 19.7275Z" fill="black"/>
<path d="M24.1018 4.22945C24.1018 3.32471 24.0969 2.41998 24.1018 1.51524C24.1067 0.595798 24.5578 0.100523 25.4797 0.0318714C25.9848 -0.00490648 26.4973 -0.012262 27.0023 0.0269677C27.6913 0.0784566 28.1523 0.546761 28.2528 1.23328C28.2847 1.45395 28.3018 1.67952 28.3018 1.90264C28.3018 3.48899 28.3043 5.07534 28.2969 6.66169C28.292 7.86801 27.6766 8.48342 26.4678 8.46871C26.0044 8.46381 25.5263 8.454 25.0825 8.34612C24.4426 8.1892 24.1116 7.69883 24.1042 7.03928C24.0944 6.10267 24.1042 5.16851 24.1042 4.2319L24.1018 4.22945Z" fill="black"/>
<path d="M12.7079 4.25886C12.7079 5.1023 12.7055 5.94574 12.7079 6.78673C12.7128 7.75521 12.323 8.30197 11.3643 8.42211C10.7636 8.49812 10.1286 8.44173 9.52788 8.3314C8.93208 8.22351 8.54714 7.67184 8.54224 7.06133C8.53243 5.16114 8.52998 3.26341 8.54224 1.36322C8.54714 0.659535 9.03996 0.112771 9.73874 0.0490227C10.2806 -1.44583e-05 10.8347 -0.00737003 11.379 0.0367634C12.2372 0.107867 12.7055 0.652179 12.7104 1.51278C12.7153 2.42732 12.7104 3.34187 12.7104 4.25396C12.7104 4.25396 12.7079 4.25396 12.7055 4.25396L12.7079 4.25886Z" fill="black"/>
<path d="M41.3776 24.4671C41.9905 23.9621 42.5961 23.4251 43.2434 22.9396C43.876 22.464 44.5895 22.6184 45.2147 22.9151C46.8158 23.6752 47.8235 24.9207 47.9951 26.7278C48.0221 27.0024 47.8921 27.3481 47.7205 27.5712C47.2914 28.1204 46.7937 28.6181 46.323 29.1379C46.166 29.3096 46.0753 29.1576 45.9797 29.0619C44.6361 27.733 43.2925 26.4066 41.9513 25.0752C41.765 24.8913 41.5933 24.6952 41.3776 24.4647V24.4671Z" fill="#CC5A3C"/>
<path d="M14.1742 5.58768V2.83425C14.4243 2.83425 14.6744 2.83425 14.922 2.83425C17.4106 2.83425 19.9017 2.83425 22.3904 2.82935C22.5841 2.82935 22.6306 2.89309 22.6282 3.07944C22.6184 3.83216 22.6184 4.58242 22.6233 5.33514C22.6233 5.50922 22.6061 5.61465 22.3806 5.6122C19.6982 5.60485 17.0159 5.6073 14.3336 5.60485C14.2943 5.60485 14.2527 5.59749 14.1766 5.59014L14.1742 5.58768Z" fill="#CC5A3C"/>
</g>
<defs>
<clipPath id="clip0_252_413">
<rect width="48" height="45.1142" fill="white"/>
</clipPath>
</defs>
</svg>
