<svg width="48" height="50" viewBox="0 0 48 50" fill="none" xmlns="http://www.w3.org/2000/svg">
<g clip-path="url(#clip0_252_435)">
<path d="M10.5947 1.51913e-05C10.5947 0.508274 10.6074 1.00129 10.5896 1.49176C10.582 1.73318 10.6379 1.82212 10.8996 1.82212C16.6429 1.81196 22.3888 1.80942 28.1321 1.81704C28.4422 1.81704 28.5083 1.70777 28.4956 1.43585C28.4778 1.03686 28.4854 0.635339 28.4778 0.233814C28.4752 0.0711715 28.5006 -0.0076087 28.7039 -0.0050674C29.7764 0.00763908 30.8513 1.51913e-05 31.9593 1.51913e-05C31.9593 0.485403 31.9822 0.968249 31.9517 1.44855C31.9314 1.76876 32.0381 1.82721 32.338 1.82467C34.4981 1.80942 36.6582 1.81196 38.8208 1.80942C38.9022 1.80942 38.986 1.81958 39.0673 1.82467C39.0851 1.86787 39.1055 1.89582 39.1055 1.92378C39.1004 8.49049 39.1029 15.0572 39.0673 21.6239C39.0648 22.2414 39.2452 22.5134 39.8018 22.7802C44.1525 24.8717 46.7548 28.3482 47.7332 33.047C47.9187 33.939 48.033 34.8717 47.9975 35.7764C47.8983 38.4066 47.2224 40.8895 45.7789 43.1207C43.7357 46.2796 40.9047 48.3914 37.2503 49.3139C36.1576 49.5909 35.0064 49.7789 33.8831 49.7713C31.0597 49.7535 28.4168 49.0165 26.0381 47.4333C23.6569 45.8475 21.9034 43.7459 20.7573 41.1309C20.6709 40.9352 20.5718 40.8717 20.3609 40.8717C13.6773 40.8793 6.99619 40.8793 0.312579 40.8869C0.109276 40.8869 0.0101652 40.8564 0.0101652 40.615C0.0203304 30.6862 0.025413 20.7573 0.025413 10.8285C0.0228717 7.91869 0.0152478 4.99874 0 2.08134C0 1.79417 0.147395 1.8145 0.337992 1.8145C2.47776 1.8145 4.61754 1.80688 6.75731 1.82212C7.08768 1.82212 7.17408 1.71793 7.14867 1.40535C7.11817 1.00637 7.12325 0.604844 7.13596 0.20586C7.13596 0.137245 7.25032 0.0101804 7.31131 0.0101804C8.3939 1.51908e-05 9.47649 1.51913e-05 10.5947 1.51913e-05ZM35.5883 21.4918C35.6036 21.413 35.6163 21.3825 35.6163 21.3545C35.6137 18.4447 35.6086 15.535 35.6086 12.6277C35.6086 12.4549 35.5375 12.4142 35.3799 12.4142C34.8945 12.4142 34.4091 12.3939 33.9263 12.3939C23.8907 12.3939 13.8551 12.3939 3.82211 12.3863C3.50445 12.3863 3.49428 12.5286 3.49428 12.77C3.49682 20.4117 3.49428 28.0559 3.49428 35.6976C3.49428 36.1728 3.50191 36.6455 3.49428 37.1207C3.4892 37.3266 3.5324 37.413 3.77382 37.413C8.84371 37.4054 13.9136 37.4054 18.9835 37.4054C19.202 37.4054 19.4206 37.4054 19.6874 37.4054C19.2681 32.8437 20.5057 28.8539 23.7637 25.5985C27.0267 22.3355 31.014 21.0597 35.5909 21.4943L35.5883 21.4918ZM33.5959 46.2618C39.0445 46.4981 44.1017 42.1068 44.4676 36.3329C44.8717 29.9212 39.8348 24.9759 33.9797 24.8666C28.1093 24.7599 23.2147 29.3799 23.0648 35.2935C22.9047 41.6163 28.0661 46.2999 33.5959 46.2618ZM35.6086 8.91488C35.6086 8.74207 35.6086 8.59722 35.6086 8.45237C35.6086 7.50446 35.5934 6.55402 35.6112 5.60611C35.6163 5.34944 35.5299 5.30878 35.3088 5.30878C34.277 5.31387 33.2427 5.30878 32.2109 5.29608C32.0153 5.29608 31.9492 5.35453 31.9543 5.54767C31.9695 5.98985 31.9593 6.43204 31.9746 6.87422C31.9797 7.03686 31.9441 7.09786 31.7662 7.09786C30.7446 7.09023 29.7205 7.09277 28.6989 7.1004C28.5286 7.1004 28.4727 7.04449 28.4803 6.88185C28.4905 6.66075 28.4905 6.43966 28.4905 6.21857C28.4956 5.3037 28.4956 5.30624 27.5909 5.30624C22.1728 5.30624 16.7548 5.3037 11.3367 5.30116C11.1055 5.30116 10.8767 5.30116 10.615 5.30116C10.6048 5.43077 10.5896 5.54258 10.5921 5.6544C10.5972 6.05592 10.6023 6.45491 10.6175 6.85643C10.6252 7.03178 10.5769 7.09277 10.3863 7.09277C9.40534 7.08007 8.42694 7.08515 7.446 7.08261C7.33672 7.08261 7.22745 7.06482 7.14104 7.05974C7.14104 6.53369 7.13088 6.0483 7.14613 5.56545C7.15375 5.34182 7.05718 5.3037 6.8615 5.30624C5.8399 5.31132 4.81576 5.31132 3.79416 5.29862C3.56036 5.29608 3.48666 5.35199 3.4892 5.59595C3.50445 6.61755 3.50445 7.64169 3.49174 8.66329C3.4892 8.88947 3.55273 8.94538 3.77637 8.94538C14.2643 8.9403 24.7548 8.94284 35.2427 8.94284C35.3545 8.94284 35.4689 8.93013 35.6086 8.92251V8.91488Z" fill="#CC5A3C"/>
<path d="M33.8602 36.7446C35.784 34.7649 37.6925 32.803 39.6137 30.8234C39.723 30.9098 39.7916 30.953 39.8475 31.0089C40.5235 31.6899 41.1944 32.3761 41.8755 33.0495C42.0152 33.1893 42.0483 33.2732 41.8907 33.4307C39.2122 36.1194 36.5413 38.8107 33.8678 41.5044C33.8475 41.5248 33.8195 41.5426 33.7662 41.5832C33.6391 41.4485 33.5146 41.3113 33.385 41.1791C31.4104 39.1893 29.4383 37.1969 27.4612 35.2122C27.3189 35.0699 27.291 34.9936 27.4511 34.8361C28.1525 34.1525 28.8411 33.4561 29.5273 32.7573C29.6594 32.6226 29.7204 32.6734 29.8272 32.7802C31.0826 34.0305 32.3405 35.2732 33.5985 36.5184C33.6493 36.5692 33.7077 36.6124 33.8577 36.742L33.8602 36.7446Z" fill="black"/>
</g>
<defs>
<clipPath id="clip0_252_435">
<rect width="48" height="49.7789" fill="white"/>
</clipPath>
</defs>
</svg>
