<svg width="48" height="48" viewBox="0 0 48 48" fill="none" xmlns="http://www.w3.org/2000/svg">
<g clip-path="url(#clip0_252_386)">
<path d="M25.8515 46.8431C19.4843 48.7183 13.5429 47.8775 8.15627 44.0197C3.6986 40.8265 1.05153 36.4183 0.225796 31.0016C-1.47728 19.8133 6.59082 9.28522 18.3403 8.35197V4.82971C18.1984 4.82971 18.0586 4.82971 17.921 4.82971C16.8781 4.82971 15.833 4.83401 14.7901 4.82971C13.9988 4.82541 13.6009 4.43404 13.5923 3.64702C13.5837 2.82559 13.6031 2.0063 13.5859 1.18487C13.5687 0.404298 14.1622 0.00433375 14.7707 0.00863444C18.222 0.0279875 21.6733 0.0172358 25.1268 0.0172358C25.2601 0.0172358 25.3934 0.0129351 25.5268 0.00433375C26.3245 -0.0451242 26.817 0.35484 26.8471 1.15907C26.8815 2.04071 26.8793 2.9245 26.8557 3.80829C26.8363 4.45985 26.3933 4.83831 25.731 4.83831C24.6064 4.83831 23.4839 4.83616 22.3593 4.83401C22.2647 4.83401 22.1679 4.83401 22.0496 4.83401C22.041 5.02754 22.026 5.19312 22.026 5.36084C22.0303 6.3156 22.041 7.27035 22.0367 8.22295C22.0367 8.43584 22.1228 8.4982 22.3141 8.52185C26.2622 9.03148 29.7285 10.6227 32.7197 13.2333C35.6936 15.8309 37.6827 19.0564 38.7471 22.8561C38.7901 23.0087 38.8395 23.1592 38.8911 23.3248C38.8503 23.3334 38.8116 23.3549 38.7858 23.3463C37.8074 23.0109 36.786 22.9184 35.7645 22.8324C35.5581 22.8152 35.4785 22.7356 35.4119 22.5507C34.4012 19.7423 32.7885 17.3383 30.507 15.4051C28.0534 13.3279 25.2279 12.0312 22.041 11.6097C17.0458 10.9496 12.5881 12.2548 8.78632 15.5513C5.75218 18.1833 3.89213 21.5357 3.31584 25.5311C2.64278 30.2081 3.69645 34.4722 6.59082 38.2353C8.79707 41.1039 11.6678 43.0134 15.1363 44.0305C16.9404 44.5595 18.7876 44.7702 20.6605 44.6455C21.5723 44.5853 22.4776 44.409 23.385 44.2713C23.5377 44.2477 23.6301 44.2584 23.7226 44.3918C24.3097 45.2368 24.9763 46.0131 25.7482 46.6969C25.7912 46.7356 25.8149 46.7915 25.8493 46.8389L25.8515 46.8431Z" fill="#CC5A3C"/>
<path d="M45.5529 47.6796C44.9164 47.1162 44.2756 46.5507 43.6348 45.9851C42.8542 45.2927 42.0715 44.6046 41.2931 43.9079C41.1748 43.8025 41.106 43.8047 40.9813 43.9079C39.5147 45.1078 37.8332 45.8024 35.9495 46.0002C31.1671 46.5012 26.4621 43.2456 25.6687 38.0977C25.0601 34.1496 26.5073 30.9542 29.8081 28.6663C31.6509 27.389 33.7368 26.8922 35.9559 27.1567C40.0308 27.6405 42.7467 29.892 44.0606 33.7475C44.8519 36.0677 44.6218 38.388 43.5896 40.6157C43.495 40.82 43.5273 40.9275 43.6864 41.0651C45.0927 42.2887 46.4905 43.5187 47.8968 44.7422C48.0043 44.8347 48.0452 44.8906 47.9355 45.0175C47.1657 45.8841 46.4023 46.7571 45.6368 47.628C45.6196 47.6474 45.5938 47.6581 45.5529 47.6818V47.6796ZM42.3424 36.5752C42.5661 33.0078 39.5126 29.1909 35.0635 29.2081C30.6639 29.2253 27.6233 32.6573 27.6728 36.6741C27.7265 40.8308 31.1262 44.1337 35.4914 43.9079C39.633 43.695 42.5446 40.0136 42.3403 36.5774L42.3424 36.5752Z" fill="black"/>
<path d="M18.1403 21.1831C18.1403 19.9531 18.136 18.7209 18.1403 17.4909C18.1446 16.5771 18.8714 15.8481 19.7445 15.8653C20.4992 15.8803 21.1422 16.4846 21.2411 17.2824C21.2669 17.4845 21.282 17.6909 21.282 17.8952C21.2755 20.2133 21.2669 22.5335 21.2476 24.8516C21.2476 25.0946 21.3916 25.1999 21.5508 25.3139C22.3464 25.8816 22.8216 26.645 22.9549 27.6191C23.1743 29.2318 22.1572 30.7779 20.5853 31.2231C19.2391 31.6037 17.8457 31.1263 16.9834 29.9694C16.8695 29.8167 16.7576 29.778 16.5856 29.7802C14.8116 29.7845 13.0354 29.7888 11.2614 29.7802C10.6915 29.7759 10.1625 29.621 9.78837 29.1501C9.0465 28.2147 9.57979 26.8363 10.7625 26.6278C10.9797 26.5891 11.2054 26.5762 11.4269 26.5762C13.13 26.5762 14.8331 26.5783 16.5383 26.5869C16.706 26.5869 16.7877 26.5267 16.8673 26.3826C17.1361 25.8988 17.5253 25.5246 17.9941 25.23C18.0736 25.1806 18.1317 25.0344 18.1317 24.9333C18.1403 23.6839 18.1382 22.4367 18.1382 21.1874L18.1403 21.1831Z" fill="black"/>
<path d="M1.96113 14.3599C1.43429 12.9192 1.20421 11.5301 1.91812 10.1452C2.57398 8.87438 3.6556 8.22713 5.05977 8.10241C6.1543 8.00349 7.17571 8.28304 8.22078 8.73031C5.88981 10.3517 3.80612 12.1945 1.95898 14.3599H1.96113Z" fill="#2B008D"/>
<path d="M37.4396 14.3234C35.5925 12.1924 33.5389 10.3345 31.1735 8.73032C31.4187 8.6357 31.6014 8.56044 31.7885 8.48948C32.8465 8.09382 33.9324 7.94759 35.0398 8.21209C36.6827 8.6056 37.7557 9.91516 37.8977 11.601C37.9686 12.4354 37.8396 13.2331 37.5837 14.018C37.5514 14.1148 37.4955 14.2051 37.4396 14.3255V14.3234Z" fill="#2B008D"/>
</g>
<defs>
<clipPath id="clip0_252_386">
<rect width="48" height="47.8022" fill="white"/>
</clipPath>
</defs>
</svg>
