<svg width="48" height="48" viewBox="0 0 48 48" fill="none" xmlns="http://www.w3.org/2000/svg">
<g clip-path="url(#clip0_252_426)">
<path d="M26.3988 0C26.1267 0.0214276 25.8546 0.0428552 25.5824 0.0599973C25.4732 0.0664256 25.3639 0.0599973 25.2546 0.109281C27.4123 0.158564 29.493 0.582831 31.5329 1.25137C33.5771 1.92206 35.482 2.87773 37.3462 4.09696C37.3312 3.91697 37.3355 3.79054 37.3076 3.67269C37.1876 3.14557 37.0484 2.62274 36.9369 2.09348C36.7676 1.29851 37.2519 0.537833 38.034 0.338556C38.829 0.137137 39.6304 0.584974 39.8318 1.39065C40.1704 2.74059 40.4789 4.0991 40.796 5.45333C40.9803 6.23972 41.1603 7.02611 41.3467 7.81037C41.5524 8.6739 40.9246 9.56314 40.0311 9.60386C39.144 9.64243 38.2547 9.62314 37.3655 9.62314C36.1655 9.62314 34.9656 9.62314 33.7656 9.61457C33.5107 9.61243 33.2471 9.59743 33.0028 9.53315C32.2593 9.3403 31.8264 8.69747 31.8929 7.9325C31.955 7.22539 32.5207 6.65113 33.2642 6.60613C33.8214 6.57185 34.3828 6.60399 34.942 6.60613C35.1456 6.60613 35.3491 6.60613 35.5613 6.60613C34.7513 5.33548 28.2437 3.07486 25.501 3.11558C25.501 3.227 25.501 3.33842 25.501 3.44985C25.501 4.15267 25.5203 4.85335 25.4924 5.55404C25.4624 6.30829 24.9203 6.89326 24.1832 7.02826C23.4611 7.16325 22.559 6.48614 22.5119 5.72117C22.4647 4.96906 22.4883 4.21267 22.4797 3.45627C22.4797 3.34485 22.4797 3.23343 22.4797 3.04058C21.3098 3.24628 20.1741 3.39199 19.062 3.64912C16.1136 4.33266 13.4608 5.64832 11.0781 7.51681C8.65033 9.42172 6.74756 11.753 5.33119 14.4958C4.29195 16.51 3.62984 18.642 3.27628 20.8748C3.19914 21.3569 3.15843 21.8433 3.09843 22.3276C3.07272 22.5247 3.20771 22.4926 3.32128 22.4926C3.89983 22.4861 4.47623 22.4754 5.05477 22.4711C5.22405 22.4711 5.39333 22.4797 5.56047 22.4947C6.32543 22.5676 6.88255 23.0775 7.02183 23.8254C7.15897 24.556 6.49043 25.4217 5.67403 25.486C4.96692 25.5417 4.25338 25.5096 3.54413 25.5139C3.39842 25.5139 3.25057 25.5139 3.10272 25.5139C3.85697 35.872 12.1387 44.1473 22.4883 44.8909C22.4883 44.743 22.4883 44.5994 22.4883 44.4537C22.4904 43.753 22.469 43.0502 22.5054 42.3495C22.544 41.606 23.2511 40.9675 23.9818 40.9589C24.706 40.9503 25.4324 41.5781 25.4817 42.3238C25.5267 43.0138 25.501 43.708 25.5053 44.4023C25.5053 44.5587 25.5053 44.7173 25.5053 44.8759C34.8456 44.4237 44.143 36.5834 44.8737 25.5203C44.7344 25.5203 44.5952 25.5203 44.4559 25.5203C43.7809 25.5139 43.1038 25.5289 42.431 25.4946C41.6253 25.4539 40.9867 24.8025 40.9546 24.0418C40.9246 23.3218 41.5396 22.6276 42.3238 22.5076C42.4545 22.4883 42.5895 22.4733 42.7224 22.4733C43.8688 22.4711 45.0151 22.4904 46.1615 22.4669C47.5372 22.4411 48.0343 23.4247 47.9936 24.3289C47.8629 27.3395 47.3486 30.2729 46.1722 33.0628C43.8752 38.5097 40.1125 42.6131 34.8627 45.3408C32.7371 46.4444 30.4915 47.2008 28.1302 47.6036C26.596 47.865 25.0467 48.0343 23.4911 47.9807C19.0042 47.8264 14.8365 46.5986 11.0502 44.158C8.54533 42.5424 6.41114 40.5239 4.64979 38.1176C2.74488 35.5141 1.41422 32.6407 0.670684 29.5015C0.370698 28.2309 0.143565 26.9452 0.190706 25.6296C0.192849 25.5674 0.194991 25.5053 0.18642 25.4431C0.173564 25.3467 0.152136 25.2524 0.130708 25.1389C0.089996 25.5674 0.044998 25.9831 0 26.3988C0 24.871 0 23.3411 0 21.8133C0.0214276 21.9783 0.044998 22.1454 0.0642828 22.3104C0.0835677 22.4754 0.098567 22.6426 0.122137 22.8526C0.379269 16.6857 2.73631 11.4702 7.01326 7.14825C11.2859 2.82845 16.5035 0.477836 22.6683 0.098567C22.4026 0.0578546 22.214 0.0278559 22.0254 0C23.4825 0 24.9417 0 26.3988 0Z" fill="#CC5A3C"/>
<path d="M25.5053 17.0993C25.5053 19.1156 25.501 21.1319 25.5139 23.1504C25.5139 23.2983 25.6039 23.4783 25.7089 23.5854C27.4938 25.381 29.2894 27.166 31.0808 28.9552C31.7279 29.6023 32.3771 30.2472 33.0178 30.9008C33.6414 31.5393 33.7056 32.3772 33.1957 32.99C32.69 33.5964 31.835 33.7442 31.2136 33.26C30.7272 32.8807 30.3029 32.4179 29.8615 31.9807C28.5309 30.6608 27.2024 29.3366 25.876 28.0123C24.9589 27.0952 24.0504 26.1674 23.1268 25.2589C22.7261 24.8646 22.484 24.4189 22.4904 23.849C22.4926 23.6904 22.4669 23.5297 22.4669 23.3711C22.4669 19.5056 22.4711 15.64 22.4754 11.7766C22.4754 11.5109 22.4883 11.2431 22.5033 10.9774C22.5504 10.1224 23.1525 9.50317 23.9432 9.49246C24.8175 9.48175 25.426 10.0453 25.4882 10.9453C25.516 11.3438 25.5203 11.7445 25.5224 12.1431C25.5267 13.7951 25.5224 15.4493 25.5224 17.1014C25.516 17.1014 25.5096 17.1014 25.5032 17.1014L25.5053 17.0993Z" fill="black"/>
<path d="M46.8386 18.7042C46.8322 19.8548 45.9151 20.7548 44.7601 20.7419C43.6952 20.7312 42.7738 19.7798 42.7845 18.702C42.7952 17.5535 43.7145 16.6407 44.8373 16.6621C45.9901 16.6835 46.845 17.5578 46.8386 18.7063V18.7042Z" fill="#CC5A3C"/>
<path d="M42.5017 11.016C43.6695 11.0631 44.5202 11.9631 44.4666 13.0923C44.4109 14.2601 43.4788 15.0893 42.2789 15.0401C41.2503 14.9994 40.3397 14.0051 40.3847 12.9723C40.4361 11.8066 41.3403 10.9688 42.5017 11.0138V11.016Z" fill="#CC5A3C"/>
</g>
<defs>
<clipPath id="clip0_252_426">
<rect width="48" height="47.9871" fill="white"/>
</clipPath>
</defs>
</svg>
