<svg width="48" height="48" viewBox="0 0 48 48" fill="none" xmlns="http://www.w3.org/2000/svg">
<path d="M37.3981 29.6641C40.0926 32.4636 42.7755 35.2747 45.4851 38.0591C47.0573 39.6748 47.6474 41.569 47.0723 43.7382C46.488 45.9411 45.0051 47.3351 42.7894 47.84C40.7384 48.3077 38.9274 47.7413 37.4329 46.2557C34.706 43.5432 31.9871 40.8215 29.2822 38.087C28.9634 37.7643 28.7384 37.7109 28.3071 37.9129C18.1007 42.6681 6.14944 38.0928 1.62306 27.7165C-3.41462 16.1692 3.78654 2.60809 16.1576 0.343657C26.8289 -1.60972 36.8555 4.93985 39.2822 15.5262C40.3802 20.315 39.739 24.9252 37.4318 29.2834C37.3425 29.4517 37.2567 29.6212 37.1697 29.7895C37.2463 29.7477 37.3216 29.7059 37.3981 29.6641ZM19.8863 33.095C27.1999 33.0822 33.1176 27.1641 33.1118 19.867C33.106 12.5735 27.1802 6.67503 19.8607 6.67503C12.5912 6.67503 6.66654 12.6454 6.68625 19.9541C6.70596 27.1768 12.6631 33.1066 19.8874 33.095H19.8863ZM40.8544 37.5566C40.6376 37.1736 40.539 36.8671 40.3373 36.664C38.8973 35.2144 37.4422 33.7786 35.9802 32.3522C35.5036 31.8879 34.8694 31.8833 34.4277 32.2965C33.9465 32.748 33.9222 33.3689 34.3964 33.8912C34.7199 34.2475 35.0758 34.5749 35.4178 34.9138C36.5274 36.0129 37.6393 37.1086 38.7465 38.21C39.1292 38.5896 39.5999 38.7532 40.0532 38.4758C40.3732 38.2808 40.5738 37.8908 40.8544 37.5566Z" fill="#CC5A3C"/>
<path d="M19.9443 18.6587C20.8196 17.7708 21.6614 16.9003 22.5228 16.0472C22.9564 15.6189 23.484 15.5621 23.9454 15.858C24.4127 16.1575 24.5507 16.6078 24.4138 17.1162C24.3524 17.3425 24.1924 17.5654 24.0243 17.7371C22.9704 18.8119 21.9037 19.8751 20.8347 20.9359C20.2214 21.5441 19.5953 21.5394 18.9704 20.9173C17.4376 19.3922 15.9095 17.8625 14.386 16.3281C13.8017 15.7396 13.7622 15.0804 14.2573 14.5929C14.735 14.1229 15.4283 14.1739 15.9953 14.738C17.1315 15.8673 18.2608 17.0048 19.3947 18.1364C19.5547 18.2966 19.724 18.4486 19.9431 18.6564L19.9443 18.6587Z" fill="black"/>
<path d="M21.0457 29.6909C21.0457 30.8016 20.3744 31.4156 19.5071 31.086C18.9761 30.8841 18.7674 30.4697 18.7663 29.9126C18.7651 29.2522 18.6956 28.5546 19.4585 28.2389C20.2469 27.9139 21.1709 28.4409 21.0457 29.6897V29.6909Z" fill="black"/>
<path d="M21.0445 10.1013C21.041 11.1482 20.6283 11.6461 19.8051 11.5997C19.0294 11.5556 18.7268 11.0298 18.7697 9.79836C18.7941 9.08339 19.2601 8.59476 19.9094 8.60288C20.6433 8.61217 21.048 9.14607 21.0445 10.1024V10.1013Z" fill="black"/>
<path d="M11.1059 13.6946C11.9083 13.6888 12.9112 14.5059 12.9193 15.1721C12.9274 15.771 12.3848 16.3247 11.7842 16.3305C11.0352 16.3374 9.98361 15.4634 9.97318 14.8251C9.96274 14.2088 10.4729 13.6993 11.1048 13.6946H11.1059Z" fill="black"/>
<path d="M11.3842 26.1068C10.6305 26.072 10.2618 25.8399 10.0694 25.3593C9.87112 24.8661 10.001 24.4273 10.394 24.1105C10.6897 23.8714 11.0352 23.6729 11.3888 23.5301C11.8897 23.3282 12.3453 23.4744 12.6746 23.905C12.9876 24.3159 13.0549 24.8324 12.7013 25.1841C12.2827 25.6008 11.7239 25.877 11.3853 26.1068H11.3842Z" fill="black"/>
<path d="M16.3118 11.4894C16.3315 12.2844 16.0614 12.65 15.5837 12.8125C15.113 12.9738 14.6527 12.874 14.3385 12.455C14.1321 12.18 13.9547 11.8747 13.8098 11.5613C13.5582 11.0158 13.7669 10.3995 14.2666 10.1105C14.7663 9.8215 15.4179 9.94685 15.7518 10.4506C16.0103 10.8429 16.2017 11.2793 16.313 11.4894H16.3118Z" fill="black"/>
<path d="M29.7993 24.9681C29.7946 25.5902 29.3227 26.1206 28.7129 26.0765C28.0138 26.0266 27.4143 25.6865 27.034 25.0911C26.6758 24.5305 26.9552 23.8272 27.5743 23.5509C28.4045 23.1807 29.8062 24.0744 29.7993 24.9681Z" fill="black"/>
<path d="M29.797 14.8123C29.9663 15.6422 28.1159 16.681 27.4527 16.1773C26.9819 15.8186 26.7477 15.2464 27.0005 14.7137C27.2614 14.1659 28.3002 13.6122 28.8938 13.7051C29.4214 13.7863 29.797 14.2483 29.7959 14.8123H29.797Z" fill="black"/>
<path d="M26.1436 28.8597C25.9663 29.0849 25.7877 29.512 25.4793 29.6466C25.1651 29.7847 24.5552 29.7871 24.3755 29.5828C23.979 29.1336 23.6822 28.5417 23.528 27.959C23.4631 27.713 23.79 27.2058 24.0648 27.0688C24.3709 26.9156 24.8996 26.9144 25.1894 27.0862C25.7518 27.4193 25.9813 28.0461 26.1448 28.8597H26.1436Z" fill="black"/>
<path d="M16.3199 28.002C16.3315 28.8319 15.5315 29.8057 14.8382 29.8069C14.2214 29.8069 13.6881 29.2811 13.6869 28.6694C13.6846 27.9138 14.5704 26.9006 15.2289 26.9041C15.8539 26.9075 16.3118 27.3683 16.3199 28.0032V28.002Z" fill="black"/>
<path d="M24.5785 12.8695C23.9953 12.8648 23.5501 12.4644 23.4886 11.8887C23.3912 10.9776 24.2712 9.87962 25.0689 10.0026C25.3843 10.0514 25.7275 10.2998 25.942 10.5551C26.4799 11.1923 25.4272 13.0447 24.5785 12.8695Z" fill="black"/>
<path d="M10.2017 21.0114C9.05964 21.0126 8.49036 20.5262 8.69442 19.6941C8.77558 19.3621 9.11529 18.935 9.42138 18.8491C10.0544 18.6727 10.7744 18.5694 11.3333 19.1068C11.6822 19.4422 11.7495 19.8763 11.5547 20.3347C11.273 20.9963 10.7083 21.0462 10.2028 21.0114H10.2017Z" fill="black"/>
<path d="M29.6219 21.0102C28.6538 21.0079 28.1831 20.6573 28.1588 19.9226C28.1425 19.4491 28.3408 19.0452 28.7663 18.8955C29.4086 18.6691 30.0985 18.6099 30.7164 18.9895C31.1188 19.2355 31.2138 19.6615 31.1396 20.113C31.0353 20.7467 30.5785 21.0125 29.6219 21.009V21.0102Z" fill="black"/>
</svg>
