<svg width="31" height="31" viewBox="0 0 31 31" fill="none" xmlns="http://www.w3.org/2000/svg">
<g clip-path="url(#clip0_252_266)">
<path d="M10.9113 27.9492C10.5738 28.3404 10.202 28.7725 9.82796 29.2002C9.65815 29.3958 9.46255 29.4281 9.23256 29.2948C8.57052 28.9122 7.90419 28.5339 7.24001 28.1534C7.03151 28.0352 6.96273 27.8568 7.04011 27.6333C7.21636 27.1303 7.39477 26.6252 7.58177 26.1265C7.63121 25.9954 7.63336 25.9223 7.51944 25.8084C6.90684 25.2001 6.31574 24.5724 5.7053 23.9599C5.64511 23.8997 5.50325 23.8631 5.42157 23.8911C4.99167 24.0329 4.57038 24.2027 4.14264 24.3554C3.60098 24.5488 3.47631 24.5058 3.18613 24.0093C2.85726 23.4483 2.53054 22.8873 2.21242 22.3198C2.00823 21.9587 2.02542 21.8534 2.33065 21.5804C2.69605 21.2537 3.06576 20.9313 3.44192 20.6153C3.62032 20.4648 3.65041 20.3273 3.57948 20.0887C3.35164 19.3235 3.16249 18.5454 2.97763 17.7673C2.93679 17.5953 2.87446 17.5459 2.70465 17.5179C2.16084 17.4298 1.62132 17.3137 1.08181 17.2041C0.84322 17.1547 0.714252 17.0085 0.714252 16.7549C0.714252 16.0412 0.694907 15.3298 0.709953 14.6162C0.718551 14.2336 0.80023 14.1669 1.18283 14.0895C1.76749 13.9713 2.35214 13.8638 2.95399 13.7478C3.00343 13.4748 3.03782 13.1932 3.10875 12.9202C3.25276 12.3614 3.40752 11.8047 3.57518 11.2523C3.64826 11.0137 3.63752 10.8374 3.42042 10.6697C3.06146 10.3925 2.7154 10.0937 2.38008 9.78847C2.01467 9.45531 2.01682 9.30914 2.27046 8.8857C2.60578 8.32899 2.92175 7.75938 3.24846 7.19837C3.46556 6.82867 3.53434 6.79213 3.93844 6.92324C4.41992 7.08015 4.8971 7.25426 5.36783 7.44341C5.51184 7.50145 5.58708 7.47995 5.68595 7.37678C6.3007 6.74484 6.92619 6.12364 7.53663 5.48955C7.58822 5.43582 7.59682 5.29825 7.57103 5.21872C7.41197 4.74799 7.21851 4.28586 7.07235 3.81083C6.93694 3.37234 6.98207 3.30785 7.37542 3.08431C7.93858 2.76189 8.49959 2.43087 9.0692 2.11705C9.52703 1.86557 9.6474 1.89781 9.98057 2.29116C10.2686 2.63077 10.5545 2.97254 10.8575 3.29926C10.9177 3.36589 11.0596 3.41318 11.1434 3.39168C11.9581 3.17244 12.7663 2.9317 13.5788 2.7103C13.7701 2.65872 13.8797 2.60713 13.9076 2.37714C13.9614 1.9279 14.071 1.48511 14.1505 1.03803C14.2043 0.758596 14.3268 0.595237 14.6449 0.601685C15.4208 0.616732 16.1947 0.612433 16.9706 0.608134C17.1985 0.608134 17.2887 0.737101 17.3296 0.928403C17.4284 1.39913 17.5338 1.86772 17.6176 2.3406C17.6606 2.58993 17.7788 2.66732 18.0303 2.72535C18.7912 2.89946 19.5435 3.1187 20.2915 3.34869C20.5086 3.41533 20.6354 3.38309 20.7709 3.21113C21.0352 2.87581 21.3104 2.54695 21.5919 2.22453C21.8929 1.88061 22.0111 1.86342 22.3915 2.08266C23.0106 2.43732 23.6275 2.79198 24.2379 3.15954C24.5754 3.36374 24.5969 3.41103 24.4744 3.78933C24.3261 4.25576 24.152 4.7136 23.9757 5.16928C23.9091 5.33909 23.9542 5.43367 24.081 5.55834C24.7108 6.17093 25.3277 6.80072 26.0005 7.4778C26.3143 7.36603 26.7206 7.22202 27.1268 7.07585C27.2859 7.01782 27.4471 6.96623 27.6018 6.8996C27.8598 6.78998 28.0618 6.86521 28.1972 7.0952C28.597 7.77873 28.9904 8.46655 29.3816 9.15653C29.5063 9.37792 29.4009 9.55203 29.2354 9.69819C28.8206 10.0636 28.4057 10.429 27.9823 10.7837C27.8619 10.8847 27.8254 10.9728 27.8877 11.1254C28.2037 11.9057 28.3993 12.7182 28.4982 13.5522C28.5261 13.78 28.6787 13.8037 28.8528 13.8338C29.3622 13.9176 29.8695 14.0143 30.3789 14.0981C30.5788 14.1304 30.6906 14.24 30.6928 14.4335C30.7014 15.2352 30.7013 16.0369 30.6992 16.8365C30.6992 17.0515 30.5831 17.1826 30.366 17.2234C29.8416 17.3245 29.3214 17.4427 28.7926 17.5201C28.6056 17.548 28.5282 17.5996 28.5046 17.7823C28.395 18.6335 28.1951 19.461 27.8813 20.2606C27.8533 20.3316 27.92 20.482 27.9887 20.5422C28.367 20.8818 28.7668 21.1956 29.1451 21.5331C29.4934 21.8448 29.5063 21.9544 29.2784 22.365C28.9323 22.9883 28.5777 23.6052 28.2252 24.2242C28.0855 24.4693 27.8705 24.508 27.6276 24.4241C27.1311 24.2522 26.6367 24.0781 26.1466 23.8868C25.9876 23.8244 25.9081 23.8502 25.7877 23.977C25.2353 24.5681 24.6743 25.1528 24.0939 25.716C23.9392 25.8664 23.894 25.9825 23.9649 26.1759C24.1326 26.6252 24.2938 27.0787 24.4529 27.5323C24.5775 27.8891 24.5217 28.0288 24.1992 28.2136C23.6425 28.5318 23.0858 28.8499 22.5291 29.168C22.0046 29.4668 21.8649 29.441 21.4866 28.9874C21.2308 28.6801 20.9836 28.3619 20.7128 28.0675C20.6483 27.9965 20.4936 27.9471 20.4033 27.9707C19.5435 28.1921 18.6859 28.4264 17.8325 28.6736C17.7487 28.6973 17.6563 28.8176 17.6369 28.9101C17.5338 29.3894 17.4542 29.873 17.3597 30.3523C17.2844 30.7414 17.1834 30.8403 16.7879 30.8489C16.0829 30.8618 15.38 30.8553 14.675 30.8532C14.4085 30.8532 14.2322 30.7242 14.1806 30.4577C14.0796 29.9439 13.9915 29.4259 13.8818 28.9122C13.8625 28.8219 13.7808 28.6951 13.7034 28.6736C12.7878 28.4264 11.8656 28.1943 10.9091 27.9514L10.9113 27.9492ZM15.7218 24.5896C20.6978 24.6412 24.627 20.5379 24.6485 15.7618C24.67 10.7858 20.758 6.80287 15.7755 6.77493C10.864 6.74699 7.01647 10.616 6.82731 15.3083C6.61882 20.4928 10.8361 24.6627 15.7239 24.5875L15.7218 24.5896Z" fill="url(#paint0_linear_252_266)"/>
</g>
<defs>
<linearGradient id="paint0_linear_252_266" x1="31.0001" y1="17.4999" x2="-1.99988" y2="18.9999" gradientUnits="userSpaceOnUse">
<stop stop-color="#CC5A3C"/>
<stop offset="1"/>
</linearGradient>
<clipPath id="clip0_252_266">
<rect width="30" height="30.2536" fill="white" transform="translate(0.701294 0.601746)"/>
</clipPath>
</defs>
</svg>
