<svg width="31" height="31" viewBox="0 0 31 31" fill="none" xmlns="http://www.w3.org/2000/svg">
<path d="M10.8 27.9495C10.4625 28.3407 10.0906 28.7727 9.71663 29.2005C9.54682 29.3961 9.35122 29.4283 9.12123 29.2951C8.4592 28.9124 7.79286 28.5341 7.12868 28.1537C6.92018 28.0355 6.8514 27.8571 6.92878 27.6335C7.10504 27.1305 7.28344 26.6254 7.47045 26.1267C7.51988 25.9956 7.52203 25.9225 7.40811 25.8086C6.79552 25.2003 6.20441 24.5727 5.59397 23.9601C5.53378 23.8999 5.39192 23.8634 5.31024 23.8913C4.88035 24.0332 4.45905 24.203 4.03131 24.3556C3.48965 24.549 3.36498 24.5061 3.0748 24.0095C2.74593 23.4485 2.41922 22.8875 2.1011 22.3201C1.8969 21.9589 1.91409 21.8536 2.21932 21.5806C2.58473 21.2539 2.95443 20.9315 3.33059 20.6155C3.50899 20.4651 3.53909 20.3275 3.46815 20.0889C3.24031 19.3237 3.05116 18.5456 2.8663 17.7675C2.82546 17.5955 2.76313 17.5461 2.59332 17.5182C2.04951 17.43 1.51 17.314 0.970482 17.2043C0.731892 17.1549 0.602924 17.0087 0.602924 16.7551C0.602924 16.0415 0.583579 15.33 0.598625 14.6164C0.607223 14.2338 0.688902 14.1672 1.07151 14.0898C1.65616 13.9716 2.24081 13.8641 2.84266 13.748C2.8921 13.475 2.92649 13.1935 2.99742 12.9205C3.14144 12.3616 3.2962 11.8049 3.46385 11.2525C3.53694 11.0139 3.52619 10.8377 3.30909 10.67C2.95013 10.3927 2.60407 10.0939 2.26875 9.78872C1.90335 9.45555 1.9055 9.30939 2.15913 8.88594C2.49445 8.32923 2.81042 7.75963 3.13714 7.19862C3.35423 6.82891 3.42301 6.79237 3.82711 6.92349C4.30859 7.0804 4.78577 7.2545 5.2565 7.44366C5.40052 7.50169 5.47575 7.4802 5.57462 7.37702C6.18937 6.74508 6.81486 6.12389 7.42531 5.4898C7.47689 5.43606 7.48549 5.2985 7.4597 5.21897C7.30064 4.74824 7.10719 4.2861 6.96102 3.81107C6.82561 3.37258 6.87075 3.3081 7.2641 3.08455C7.82726 2.76214 8.38826 2.43112 8.95787 2.1173C9.41571 1.86581 9.53608 1.89805 9.86924 2.2914C10.1573 2.63102 10.4431 2.97278 10.7462 3.2995C10.8064 3.36613 10.9483 3.41342 11.0321 3.39193C11.8467 3.17268 12.6549 2.93194 13.4674 2.71055C13.6587 2.65896 13.7684 2.60737 13.7963 2.37738C13.85 1.92815 13.9597 1.48536 14.0392 1.03827C14.0929 0.75884 14.2154 0.595481 14.5336 0.60193C15.3095 0.616976 16.0833 0.612677 16.8593 0.608378C17.0871 0.608378 17.1774 0.737346 17.2182 0.928647C17.3171 1.39938 17.4224 1.86796 17.5063 2.34084C17.5493 2.59018 17.6675 2.66756 17.919 2.72559C18.6799 2.8997 19.4322 3.11895 20.1802 3.34894C20.3973 3.41557 20.5241 3.38333 20.6595 3.21137C20.9239 2.87606 21.199 2.54719 21.4806 2.22477C21.7815 1.88086 21.8998 1.86366 22.2802 2.08291C22.8993 2.43757 23.5162 2.79223 24.1266 3.15979C24.4641 3.36398 24.4856 3.41127 24.363 3.78958C24.2147 4.25601 24.0406 4.71384 23.8644 5.16953C23.7977 5.33934 23.8429 5.43391 23.9697 5.55858C24.5995 6.17118 25.2164 6.80097 25.8892 7.47805C26.203 7.36628 26.6092 7.22226 27.0155 7.0761C27.1745 7.01806 27.3357 6.96648 27.4905 6.89984C27.7484 6.79022 27.9505 6.86545 28.0859 7.09544C28.4857 7.77897 28.8791 8.4668 29.2703 9.15677C29.3949 9.37817 29.2896 9.55227 29.1241 9.69844C28.7092 10.0638 28.2944 10.4293 27.871 10.7839C27.7506 10.8849 27.7141 10.9731 27.7764 11.1257C28.0924 11.9059 28.288 12.7184 28.3868 13.5524C28.4148 13.7803 28.5674 13.8039 28.7415 13.834C29.2509 13.9178 29.7582 14.0146 30.2676 14.0984C30.4675 14.1306 30.5793 14.2402 30.5814 14.4337C30.59 15.2354 30.59 16.0372 30.5879 16.8368C30.5879 17.0517 30.4718 17.1829 30.2547 17.2237C29.7302 17.3247 29.2101 17.4429 28.6813 17.5203C28.4943 17.5483 28.4169 17.5998 28.3933 17.7826C28.2837 18.6337 28.0838 19.4613 27.7699 20.2609C27.742 20.3318 27.8086 20.4823 27.8774 20.5425C28.2557 20.8821 28.6555 21.1959 29.0338 21.5334C29.382 21.845 29.3949 21.9546 29.1671 22.3652C28.821 22.9885 28.4664 23.6054 28.1138 24.2245C27.9741 24.4695 27.7592 24.5082 27.5163 24.4244C27.0198 24.2524 26.5254 24.0783 26.0353 23.887C25.8763 23.8247 25.7967 23.8505 25.6764 23.9773C25.124 24.5684 24.5629 25.153 23.9826 25.7162C23.8278 25.8667 23.7827 25.9827 23.8536 26.1762C24.0213 26.6254 24.1825 27.079 24.3415 27.5325C24.4662 27.8893 24.4103 28.029 24.0879 28.2139C23.5312 28.532 22.9745 28.8501 22.4178 29.1682C21.8933 29.467 21.7536 29.4412 21.3753 28.9877C21.1195 28.6803 20.8723 28.3622 20.6015 28.0677C20.537 27.9968 20.3822 27.9473 20.292 27.971C19.4322 28.1924 18.5746 28.4267 17.7212 28.6739C17.6374 28.6975 17.545 28.8179 17.5256 28.9103C17.4224 29.3896 17.3429 29.8733 17.2483 30.3526C17.1731 30.7416 17.0721 30.8405 16.6766 30.8491C15.9716 30.862 15.2687 30.8556 14.5637 30.8534C14.2971 30.8534 14.1209 30.7244 14.0693 30.4579C13.9683 29.9442 13.8801 29.4262 13.7705 28.9124C13.7512 28.8222 13.6695 28.6954 13.5921 28.6739C12.6764 28.4267 11.7543 28.1945 10.7978 27.9516L10.8 27.9495ZM15.6104 24.5899C20.5864 24.6415 24.5157 20.5382 24.5372 15.7621C24.5586 10.7861 20.6466 6.80312 15.6642 6.77517C10.7527 6.74723 6.90514 10.6163 6.71599 15.3085C6.50749 20.493 10.7247 24.663 15.6126 24.5877L15.6104 24.5899Z" fill="url(#paint0_linear_252_317)"/>
<defs>
<linearGradient id="paint0_linear_252_317" x1="30.8888" y1="17.5002" x2="-2.11121" y2="19.0002" gradientUnits="userSpaceOnUse">
<stop stop-color="#541589"/>
<stop offset="1" stop-color="#05916A"/>
</linearGradient>
</defs>
</svg>
