<svg width="49" height="45" viewBox="0 0 49 45" fill="none" xmlns="http://www.w3.org/2000/svg">
<g clip-path="url(#clip0_252_253)">
<path d="M0.346313 22.0942C2.32631 19.9142 4.31631 17.7242 6.31631 15.5242C6.27631 15.4842 6.23631 15.4242 6.18631 15.3842C4.81631 14.0942 3.45631 12.8042 2.08631 11.5042C1.56631 11.0042 1.03631 10.5142 0.506313 10.0242C0.336313 9.86418 0.436313 9.78418 0.586313 9.70418C1.55631 9.19418 2.52631 8.69418 3.49631 8.18418C7.86631 5.93418 12.2163 3.69418 16.5763 1.44418C16.9663 1.24418 17.3663 1.04418 17.7663 0.844177C19.4063 2.06418 21.0563 3.27418 22.6963 4.49418C23.1463 4.82418 23.6063 5.15418 24.0563 5.49418C24.1863 5.58418 24.2763 5.58418 24.4063 5.49418C26.5063 3.98418 28.6163 2.47418 30.7263 0.974177C30.8063 0.914177 30.9663 0.904177 31.0563 0.944177C33.9663 2.45418 36.8663 3.96418 39.7663 5.47418C41.8163 6.54418 43.8663 7.61418 45.9163 8.68418C46.7063 9.09418 47.4863 9.51418 48.3363 9.96418C46.3363 11.8142 44.3463 13.6542 42.3463 15.5042C44.3463 17.8042 46.3263 20.0742 48.3463 22.3942C42.9163 25.4042 37.5163 28.3942 32.0863 31.4042C29.8863 29.0742 27.6563 26.7242 25.4163 24.3542C30.3763 21.7342 35.3163 19.0742 40.2563 16.4242L40.2163 16.3342C39.6163 16.0142 39.0163 15.6942 38.4163 15.3642C35.2063 13.5842 32.0063 11.8042 28.7963 10.0342C27.3863 9.25418 25.9763 8.48418 24.5663 7.70418C24.4063 7.61418 24.2863 7.61418 24.1263 7.70418C21.4063 9.21418 18.6763 10.7242 15.9563 12.2342C13.6163 13.5242 11.2863 14.8142 8.94631 16.1042C8.78631 16.1942 8.61631 16.2642 8.35631 16.3842C13.3763 19.0542 18.3263 21.7042 23.3263 24.3242C21.1263 26.7442 18.9263 29.1642 16.7363 31.5742C11.2863 28.4242 5.84631 25.2742 0.356313 22.1042L0.346313 22.0942Z" fill="white"/>
<path d="M25.3963 27.3642C25.4563 27.4142 25.5163 27.4542 25.5563 27.5042C27.4463 29.5042 29.3263 31.5142 31.2163 33.5142C31.6563 33.9842 31.6663 33.9842 32.2263 33.6742C34.4363 32.4542 36.6463 31.2342 38.8663 30.0042C39.9863 29.3842 41.1063 28.7642 42.2263 28.1342C42.2663 28.1142 42.3163 28.0942 42.3763 28.0742C42.3763 28.6542 42.3763 29.2042 42.3763 29.7642C42.3763 31.6942 42.3763 33.6342 42.3763 35.5642C42.3763 35.7142 42.3363 35.8042 42.1963 35.8742C39.4663 37.3342 36.7363 38.7942 34.0063 40.2542C31.2663 41.7142 28.5263 43.1742 25.7863 44.6342C25.6663 44.6942 25.5563 44.7642 25.4063 44.8542V27.3542L25.3963 27.3642Z" fill="white"/>
<path d="M23.2963 27.4542V44.8542C22.7063 44.5442 22.1463 44.2442 21.5963 43.9542C17.2063 41.6142 12.8163 39.2642 8.43628 36.9242C7.79628 36.5842 7.16628 36.2342 6.52628 35.9042C6.36628 35.8242 6.31628 35.7342 6.31628 35.5542C6.31628 33.3742 6.31628 31.1842 6.31628 29.0042C6.31628 28.6542 6.31628 28.3142 6.31628 27.9542C6.35628 27.9742 6.41628 27.9942 6.47628 28.0342C9.85628 29.9942 13.2463 31.9442 16.6263 33.9042C17.1363 34.1942 17.1363 34.2042 17.5263 33.7742C19.4263 31.6842 21.3263 29.5942 23.2263 27.5042C23.2463 27.4842 23.2663 27.4842 23.3063 27.4642L23.2963 27.4542Z" fill="white"/>
</g>
<defs>
<clipPath id="clip0_252_253">
<rect width="48" height="44.02" fill="white" transform="translate(0.346313 0.844177)"/>
</clipPath>
</defs>
</svg>
