<svg width="30" height="30" viewBox="0 0 30 30" fill="none" xmlns="http://www.w3.org/2000/svg">
<g clip-path="url(#clip0_252_139)">
<path d="M13.7437 8.23656C13.7437 10.4105 13.7437 12.5868 13.7437 14.7607C13.7437 14.9623 13.7437 15.1688 13.7073 15.3655C13.5712 16.0651 13.0682 16.4537 12.2785 16.4561C10.1134 16.461 7.94589 16.4561 5.78082 16.4561C4.37389 16.4561 2.96695 16.4561 1.56002 16.4488C0.505427 16.4416 0.00242994 15.9145 0.00485987 14.8725C0.00728981 11.2703 0 7.67061 0 4.06847C0 3.21834 0.00485987 2.36821 0.0121497 1.5205C0.0194395 0.553778 0.551596 0.00726318 1.51385 0.00726318C5.08586 0.00726318 8.66029 0.00726318 12.2323 0.01455C13.1727 0.01455 13.717 0.531917 13.7243 1.46949C13.7389 3.72599 13.7291 5.98249 13.7291 8.23656C13.734 8.23656 13.7389 8.23656 13.7462 8.23656H13.7437ZM2.75555 2.75441V13.7649H11.0514V2.75441H2.75555Z" fill="#CC5A3C"/>
<path d="M30 21.7999C30 24.0467 30 26.2934 30 28.5378C30 29.4292 29.4411 29.9952 28.5372 29.9927C25.4001 29.9879 22.2606 29.9733 19.1236 29.966C18.6983 29.966 18.2731 29.9757 17.8479 29.9879C16.8492 30.0146 16.2781 29.4899 16.2733 28.4941C16.2611 24.7292 16.2587 20.9668 16.2538 17.2019C16.2538 16.4926 16.249 15.7858 16.2635 15.0765C16.283 14.0685 16.8103 13.556 17.8236 13.5536C21.3664 13.5536 24.9093 13.5536 28.4521 13.5536C28.8701 13.5536 29.2807 13.6167 29.565 13.9374C29.7424 14.139 29.8858 14.4062 29.9441 14.666C30.0146 14.9867 29.9927 15.3292 29.9927 15.6619C29.9951 17.7047 29.9927 19.7498 29.9927 21.7926L30 21.7999ZM18.9511 27.2505H27.2517V16.2546C27.2007 16.2449 27.174 16.2327 27.1448 16.2327C24.4913 16.2327 21.8403 16.2327 19.1868 16.2254C18.9438 16.2254 18.9389 16.3372 18.9389 16.5218C18.9389 20.034 18.9316 23.5439 18.9292 27.0561C18.9292 27.1144 18.9438 27.1727 18.9511 27.248V27.2505Z" fill="#CC5A3C"/>
<path d="M23.1452 0.012161C24.9069 0.012161 26.6661 0.0291636 28.4278 0.0048741C29.3391 -0.00727067 30.0122 0.546531 30.0024 1.57884C29.9757 4.23854 30 6.90067 30.0024 9.56038C30.0024 10.2842 29.5626 10.8089 28.8434 10.9303C28.5955 10.9716 28.3404 10.9935 28.0901 10.9959C24.7198 11.0007 21.3494 11.0007 17.9791 10.9959C17.5199 10.9959 17.0703 10.957 16.7155 10.5975C16.4458 10.3255 16.283 10.0073 16.2806 9.62839C16.2757 6.87638 16.266 4.12681 16.2806 1.3748C16.2854 0.539244 16.8784 0.00730305 17.741 0.00244515C19.5416 -0.00484171 21.3446 0.00244515 23.1452 0.00244515V0.012161ZM18.9414 8.2876H27.259V2.75688C27.208 2.74959 27.1691 2.73988 27.1327 2.73988C24.4816 2.73988 21.8306 2.73988 19.1795 2.73502C18.9584 2.73502 18.9389 2.83946 18.9389 3.01435C18.9438 4.54216 18.9438 6.06997 18.9438 7.59778C18.9438 7.8091 18.9438 8.01799 18.9438 8.2876H18.9414Z" fill="black"/>
<path d="M6.85483 29.9952C5.05425 29.9952 3.25124 29.9952 1.45066 29.9952C0.580738 29.9952 0.0169927 29.4486 0.0121328 28.5475C0.00484303 26.2619 0.0121328 23.9738 0.0121328 21.6881C0.0121328 21.3335 0.0291424 20.9789 0.00727297 20.6267C-0.0583353 19.5167 0.685225 19.0697 1.53084 19.0187C1.61103 19.0139 1.69365 19.0163 1.77384 19.0163C5.19519 19.0163 8.61654 19.0163 12.0403 19.0163C12.2201 19.0163 12.4048 19.0333 12.5822 19.0649C13.2529 19.179 13.6562 19.6162 13.7218 20.2891C13.734 20.4202 13.7413 20.5514 13.7413 20.6826C13.7413 23.2427 13.7413 25.8028 13.7291 28.3629C13.7291 28.6592 13.6951 28.9823 13.5736 29.2446C13.3185 29.796 12.8276 30 12.2299 30C10.439 29.9927 8.6457 30 6.85483 30C6.85483 30 6.85483 30 6.85483 29.9976V29.9952ZM11.0368 21.7173H2.74581V27.2553C2.79927 27.2626 2.83815 27.2699 2.87703 27.2699C5.52809 27.2699 8.17672 27.2699 10.8278 27.2772C11.1048 27.2772 11.0805 27.1217 11.0781 26.9468C11.0708 25.3097 11.0635 23.6702 11.0538 22.0331C11.0538 21.9335 11.044 21.8363 11.0368 21.7149V21.7173Z" fill="black"/>
</g>
<defs>
<clipPath id="clip0_252_139">
<rect width="30" height="30" fill="white"/>
</clipPath>
</defs>
</svg>
