<svg width="29" height="30" viewBox="0 0 29 30" fill="none" xmlns="http://www.w3.org/2000/svg">
<g clip-path="url(#clip0_252_174)">
<path d="M14.1952 29.9962C10.0521 29.9962 5.90895 29.9924 1.76583 30C0.674333 30.0019 -0.00190087 29.1923 4.01382e-06 28.2456C0.0152431 22.8891 0.00762354 17.5325 0.00571866 12.176C0.00571866 11.5893 0.215256 11.115 0.676237 10.7493C1.68202 9.95492 2.68398 9.15296 3.69357 8.36434C3.86692 8.22909 3.92787 8.09766 3.92597 7.86907C3.90692 6.40993 3.90692 4.94889 3.90882 3.48975C3.90882 2.76779 3.89168 2.04394 3.94502 1.3258C3.99835 0.575275 4.6784 0 5.43463 0C9.633 0 13.8314 0.00380977 18.0297 0.00571465C19.4298 0.00571465 20.828 -0.00190488 22.2281 0.00190488C22.5519 0.00190488 22.8796 0.00571465 23.1977 0.0571465C23.9787 0.184774 24.4892 0.841958 24.4911 1.69725C24.4949 3.75262 24.4968 5.80799 24.4892 7.86336C24.4892 8.10337 24.5635 8.25576 24.7501 8.40053C25.7235 9.15868 26.6855 9.93396 27.657 10.6959C28.1542 11.0845 28.3789 11.5722 28.377 12.216C28.3637 15.3419 28.377 18.4697 28.377 21.5957C28.377 23.8491 28.377 26.1026 28.377 28.3561C28.377 29.2876 27.6799 29.9962 26.7446 29.9962C24.2225 29.9981 21.7004 29.9962 19.1784 29.9962C17.5173 29.9962 15.8582 29.9962 14.1971 29.9962H14.1952ZM3.89358 10.1625C3.80977 10.2121 3.76596 10.2311 3.73167 10.2597C3.07258 10.7797 2.41921 11.3055 1.75631 11.8198C1.60963 11.9322 1.54486 12.0541 1.54486 12.237C1.54486 13.1094 1.53534 13.9818 1.54105 14.8543C1.54105 14.919 1.62677 15.0105 1.69535 15.0429C4.61173 16.3725 7.53191 17.6964 10.4521 19.0222C11.5665 19.5289 12.6808 20.0375 13.7933 20.548C14.0676 20.6737 14.3228 20.6775 14.6086 20.5461C16.883 19.5022 19.165 18.4697 21.4433 17.4335C23.1539 16.6563 24.8644 15.8753 26.5788 15.1057C26.7865 15.0124 26.8436 14.8886 26.8417 14.6695C26.8341 13.8599 26.8417 13.0504 26.8589 12.2427C26.8627 12.0712 26.8188 11.9569 26.6874 11.856C26.0112 11.3321 25.3388 10.8045 24.6644 10.2787C24.6187 10.2445 24.5673 10.2197 24.4968 10.1778C24.4968 10.2921 24.4968 10.3721 24.4968 10.4502C24.4968 11.5779 24.4968 12.7037 24.493 13.8314C24.4911 14.3076 24.1444 14.6676 23.7025 14.6695C23.2281 14.6695 22.9291 14.3571 22.9291 13.8428C22.9291 13.5723 22.9538 13.3037 22.9538 13.0332C22.9557 11.3436 22.9538 9.65395 22.9538 7.96432C22.9538 6.6709 22.9481 5.37748 22.9443 4.08407C22.9443 3.46498 22.9557 2.84589 22.9386 2.22871C22.9253 1.76583 22.75 1.58486 22.2852 1.55629C21.9233 1.53343 21.5595 1.55629 21.1956 1.55629C17.2659 1.55629 13.3361 1.55438 9.40632 1.55438C8.31482 1.55438 7.22332 1.55438 6.13182 1.5601C5.69751 1.56391 5.48226 1.78297 5.4594 2.22109C5.45559 2.3011 5.45559 2.3792 5.45559 2.4592C5.4594 6.22135 5.46321 9.98349 5.46321 13.7456C5.46321 13.8637 5.45178 13.9857 5.4213 14.098C5.31653 14.4943 5.01175 14.7 4.60411 14.6619C4.22884 14.6276 3.98311 14.3762 3.9393 13.978C3.92787 13.8752 3.92025 13.7723 3.92025 13.6694C3.91835 12.5818 3.92025 11.4941 3.91644 10.4083C3.91644 10.3397 3.90501 10.273 3.89739 10.1625H3.89358ZM26.8208 16.662C26.7465 16.6887 26.7027 16.7001 26.6588 16.7211C25.8531 17.0868 25.0492 17.4544 24.2434 17.8202C21.1099 19.2469 17.9764 20.6718 14.8429 22.0985C14.4733 22.2681 14.0942 22.2986 13.7152 22.1538C13.3989 22.0338 13.0885 21.8947 12.7799 21.7538C9.0863 20.0717 5.39273 18.3859 1.69916 16.702C1.66678 16.6868 1.62677 16.6906 1.54486 16.6792C1.54486 16.9668 1.54486 17.2335 1.54486 17.5021C1.54486 19.7327 1.54486 21.9614 1.54486 24.192C1.54486 25.5178 1.54486 26.8417 1.53534 28.1675C1.53534 28.3732 1.59439 28.4361 1.80583 28.4361C4.77935 28.4285 7.75097 28.4304 10.7245 28.4304C14.5666 28.4304 18.4107 28.4323 22.2528 28.4361C23.731 28.4361 25.2092 28.4475 26.6874 28.457C26.8246 28.457 26.8474 28.3904 26.8436 28.2818C26.8379 28.0913 26.8265 27.9008 26.8265 27.7103C26.8322 24.1311 26.8379 20.5518 26.8436 16.9725C26.8436 16.8735 26.8284 16.7744 26.8208 16.6582V16.662Z" fill="#CC5A3C" stroke="#CC5A3C"/>
<path d="M14.178 6.32037C15.4733 6.32037 16.7687 6.32037 18.064 6.32037C18.6888 6.32037 19.3117 6.32037 19.9365 6.33942C20.3956 6.35085 20.6984 6.64992 20.7327 7.08804C20.7613 7.44425 20.4565 7.80047 20.0355 7.85761C19.725 7.89952 19.405 7.89952 19.0907 7.89952C15.6619 7.89952 12.2312 7.89952 8.80244 7.89381C8.6291 7.89381 8.45385 7.88809 8.28432 7.85571C7.90524 7.78142 7.63666 7.42901 7.66523 7.06709C7.69761 6.66325 7.99858 6.33371 8.3948 6.3299C9.5644 6.32037 10.7321 6.3299 11.9017 6.3318C12.6598 6.3318 13.418 6.3318 14.1761 6.3318C14.1761 6.32799 14.1761 6.32418 14.1761 6.32037H14.178Z" fill="black" stroke="black"/>
<path d="M11.4388 12.6084C10.5302 12.6084 9.62156 12.6084 8.71293 12.6084C8.56435 12.6084 8.41196 12.5989 8.26528 12.5684C7.90526 12.496 7.65381 12.1684 7.66905 11.8141C7.68429 11.4426 7.95669 11.1226 8.32814 11.0902C8.69769 11.0579 9.06914 11.0579 9.44059 11.0579C10.9816 11.0559 12.5227 11.0579 14.0637 11.0579C14.1742 11.0579 14.2847 11.0655 14.3952 11.0788C14.8543 11.134 15.119 11.4445 15.1 11.8998C15.0829 12.3227 14.7743 12.6065 14.3095 12.6103C13.3532 12.616 12.397 12.6103 11.4407 12.6103V12.6065L11.4388 12.6084Z" fill="black" stroke="black"/>
</g>
<defs>
<clipPath id="clip0_252_174">
<rect width="28.377" height="30" fill="white"/>
</clipPath>
</defs>
</svg>
