<svg width="31" height="26" viewBox="0 0 31 26" fill="none" xmlns="http://www.w3.org/2000/svg">
<path d="M16.9159 14.8288C21.7074 17.0115 24.2203 20.739 24.5247 26.0008H22.1488C22.0651 22.7466 20.7256 20.1302 18.129 18.1865C16.371 16.8699 14.3512 16.2626 12.1716 16.3372C9.58255 16.4255 7.33446 17.395 5.52015 19.2672C3.71041 21.1347 2.80326 23.3874 2.75759 26.0008H0.377075C0.667791 20.736 3.20204 17.0328 7.98743 14.8288C5.98438 13.2002 4.94633 11.0982 5.09701 8.50613C5.22335 6.3387 6.17921 4.5457 7.88849 3.19258C10.992 0.739002 15.3284 1.18953 17.8991 4.01754C20.6937 7.09212 20.4928 12.0115 16.9159 14.8288ZM17.4562 8.97188C17.546 6.36153 15.3421 3.92622 12.4501 3.94144C9.5993 3.95666 7.38469 6.22911 7.41969 9.06473C7.45318 11.8029 9.75455 14.0252 12.5125 13.9932C15.4334 13.9582 17.546 11.4742 17.4547 8.97188H17.4562Z" fill="#CC5A3C"/>
<path d="M22.7789 13.255C25.791 14.5229 27.9874 16.6035 29.3329 19.5548C30.0315 21.0876 30.3755 22.704 30.377 24.4148C30.2979 24.4148 30.2385 24.4148 30.1776 24.4148C29.5216 24.4148 28.8641 24.4118 28.2081 24.4163C28.0817 24.4163 28.0346 24.3905 28.0285 24.2519C27.8397 20.3433 25.9904 17.4985 22.5216 15.707C21.7164 15.2915 20.8504 15.0373 19.9539 14.8943C19.9052 14.8866 19.858 14.8714 19.8093 14.8608C19.8504 14.3646 19.8945 13.876 19.9295 13.3889C19.9554 13.0297 19.9782 12.6705 19.9843 12.3113C19.9874 12.1606 20.0239 12.0921 20.1776 12.0267C22.0011 11.2459 23.1152 9.88969 23.3283 7.90186C23.5429 5.89882 22.7438 4.31587 21.0985 3.17736C20.3435 2.65529 19.4836 2.3874 18.5566 2.36305C18.4988 2.36305 18.412 2.31282 18.3877 2.26259C18.0574 1.56244 17.7347 0.857723 17.4105 0.154527C17.4029 0.137784 17.3983 0.119519 17.3816 0.0723348C18.1746 -0.0479088 18.9539 -0.0129012 19.7271 0.137784C21.4242 0.468073 22.8382 1.29608 23.9539 2.61267C25.3161 4.2215 25.8869 6.09669 25.6617 8.18497C25.4364 10.2687 24.4288 11.9414 22.7773 13.2519L22.7789 13.255Z" fill="black"/>
</svg>
