<svg width="30" height="38" viewBox="0 0 30 38" fill="none" xmlns="http://www.w3.org/2000/svg">
<g clip-path="url(#clip0_252_163)">
<path d="M24.7553 5.68331C25.4732 5.68331 26.1532 5.66935 26.8313 5.6873C27.2779 5.69927 27.7326 5.70724 28.1653 5.80097C29.298 6.04824 29.9062 6.99347 29.9541 8.01647C30.0199 9.41836 29.992 10.8242 29.994 12.2281C29.998 19.5387 29.998 26.8512 29.994 34.1618C29.994 34.5925 29.998 35.0312 29.9122 35.45C29.653 36.7103 28.6739 37.478 27.3797 37.478C19.1378 37.478 10.894 37.478 2.65218 37.478C1.13862 37.478 0.0338646 36.4351 0.00993484 34.9215C-0.0159891 33.2524 0.00993484 31.5813 0.00993484 29.9122C0.00993484 23.2737 0.00993484 16.6352 0.011929 9.99666C0.011929 9.33261 0.0079407 8.66656 0.0558003 8.0045C0.13756 6.87581 0.773695 6.06619 1.77077 5.80296C2.08784 5.71921 2.42485 5.6893 2.75389 5.68132C3.45982 5.66537 4.16574 5.68132 4.87167 5.68132C5.00329 5.68132 5.1349 5.68132 5.27449 5.68132C5.28646 5.61352 5.30241 5.56566 5.30241 5.51979C5.30241 4.90559 5.29244 4.2894 5.29443 3.6752C5.29643 2.87355 5.56763 2.60036 6.37925 2.59836C7.97457 2.59437 9.56989 2.59836 11.1652 2.59836C11.3985 2.59836 11.6757 2.66616 11.8492 2.56247C12.0008 2.47074 12.0307 2.18158 12.1224 1.98217C12.6548 0.833539 13.5083 0.0957035 14.8045 0.00796087C16.005 -0.0718051 16.9542 0.422744 17.6063 1.43777C17.7918 1.72692 17.9174 2.05795 18.045 2.381C18.1068 2.53654 18.1707 2.60036 18.3442 2.60036C20.0312 2.59637 21.7183 2.60036 23.4033 2.60235C23.6187 2.60235 23.836 2.60235 24.0494 2.62628C24.4403 2.67215 24.7234 2.9613 24.7354 3.35813C24.7553 4.03814 24.7494 4.72014 24.7534 5.40214C24.7534 5.4839 24.7534 5.56566 24.7534 5.68331H24.7553ZM5.30241 7.26866C4.30932 7.26866 3.34814 7.24872 2.38896 7.27664C1.93828 7.2906 1.62919 7.64157 1.59927 8.09624C1.57534 8.45917 1.5913 8.82609 1.5913 9.19102C1.58731 17.6243 1.58531 26.0575 1.58332 34.4908C1.58332 34.6882 1.59329 34.8916 1.63118 35.0851C1.74883 35.7013 1.97617 35.8827 2.59834 35.8827C10.89 35.8827 19.1817 35.8827 27.4734 35.8847C28.0278 35.8847 28.3727 35.5736 28.4266 35.0173C28.4405 34.8777 28.4445 34.7361 28.4445 34.5945C28.4445 26.7356 28.4405 18.8746 28.4405 11.0157C28.4405 10.0944 28.4565 9.17108 28.4385 8.24978C28.4246 7.59171 28.0995 7.2567 27.4514 7.24673C26.572 7.23476 25.6906 7.26268 24.8112 7.27465C24.7972 7.27465 24.7853 7.29259 24.7573 7.31253C24.7573 7.3584 24.7573 7.41623 24.7573 7.47207C24.7534 7.9367 24.7653 8.40333 24.7414 8.86598C24.7214 9.25484 24.4463 9.54 24.0594 9.56592C23.6705 9.59185 23.2797 9.5739 22.8888 9.5739C17.4229 9.57789 11.9549 9.58387 6.48893 9.58587C6.32342 9.58587 6.15591 9.58188 5.99239 9.55994C5.63942 9.51208 5.37819 9.2688 5.3383 8.91184C5.30241 8.59078 5.31238 8.26574 5.3064 7.94269C5.30241 7.72134 5.3064 7.49998 5.3064 7.26667L5.30241 7.26866ZM15.0059 8.01647C15.0059 8.01647 15.0059 8.01647 15.0059 8.01447C17.5146 8.01447 20.0212 8.01447 22.5299 8.01447C22.6715 8.01447 22.813 8.01248 22.9526 8.0065C23.1122 8.00052 23.184 7.92873 23.182 7.75524C23.168 6.63452 23.16 5.51381 23.154 4.3931C23.154 4.25151 23.1102 4.20365 22.9666 4.20764C22.6176 4.21362 22.2686 4.20764 21.9197 4.20365C20.4001 4.19568 18.8806 4.19368 17.361 4.17773C16.9642 4.17374 16.7189 3.94043 16.6411 3.54957C16.6152 3.41995 16.6112 3.28634 16.6033 3.15473C16.5634 2.36106 15.9013 1.62921 15.1695 1.57736C14.2242 1.50956 13.4346 2.25537 13.4106 3.23848C13.3947 3.93045 13.1494 4.19169 12.4594 4.19368C10.6826 4.20166 8.90584 4.19967 7.12905 4.18969C6.91967 4.18969 6.85386 4.24354 6.85585 4.44893C6.85785 5.43604 6.84588 6.42514 6.84788 7.41224C6.84788 8.00052 6.71227 8.01846 7.4521 8.01846C9.96872 8.01846 12.4853 8.01846 15 8.01846L15.0059 8.01647Z" fill="#CC5A3C" stroke="#CC5A3C"/>
<path d="M20.3344 25.5152C18.5476 25.5152 16.7628 25.5152 14.9761 25.5152C14.3499 25.5152 13.979 25.0266 14.1625 24.4523C14.2462 24.189 14.4137 24.0036 14.7009 23.9617C14.8405 23.9418 14.9801 23.9238 15.1197 23.9238C18.5576 23.9218 21.9975 23.9238 25.4354 23.9238C25.5351 23.9238 25.6368 23.9178 25.7345 23.9318C26.0197 23.9717 26.261 24.0913 26.3826 24.3705C26.5142 24.6736 26.4963 24.9727 26.2989 25.2439C26.1453 25.4553 25.924 25.5231 25.6667 25.5211C23.8899 25.5171 22.1112 25.5191 20.3344 25.5191V25.5152Z" fill="black" stroke="black"/>
<path d="M6.37135 22.3026C7.05335 21.7163 7.66555 21.1918 8.27377 20.6654C9.39049 19.6982 10.5032 18.7231 11.6259 17.7599C12.1564 17.3052 12.7726 17.4628 12.98 18.0849C13.0757 18.3721 12.9899 18.6154 12.7865 18.8108C12.4635 19.1219 12.1305 19.423 11.7914 19.7162C10.7345 20.6275 9.66967 21.5288 8.61277 22.4402C8.13418 22.851 7.66755 23.2757 7.19493 23.6925C7.15106 23.7304 7.10719 23.7683 7.06132 23.8042C6.43915 24.3107 6.11809 24.2967 5.57568 23.7085C4.9914 23.0723 4.42107 22.4242 3.84675 21.7801C3.64335 21.5528 3.52171 21.2975 3.62341 20.9824C3.82282 20.3623 4.48488 20.2007 4.93157 20.6714C5.36031 21.124 5.77909 21.5847 6.19786 22.0453C6.25968 22.1131 6.30155 22.1969 6.37135 22.3006V22.3026Z" fill="black" stroke="black"/>
<path d="M21.5508 21.9875C20.3144 21.9875 19.0761 21.9875 17.8397 21.9875C17.732 21.9875 17.6243 21.9875 17.5166 21.9795C17.0739 21.9516 16.7828 21.6644 16.7628 21.2397C16.7409 20.803 17.0101 20.4799 17.4588 20.4201C17.6303 20.3962 17.8058 20.3902 17.9793 20.3902C20.462 20.3882 22.9447 20.3882 25.4274 20.3882C25.918 20.3882 26.1912 20.5417 26.3168 20.8807C26.5282 21.4471 26.1553 21.9855 25.5371 21.9875C24.209 21.9935 22.8809 21.9875 21.5508 21.9875Z" fill="black" stroke="black"/>
<path d="M22.831 18.4339C21.9177 18.4339 21.0043 18.4399 20.093 18.4319C19.5825 18.4279 19.2754 18.0869 19.3013 17.5864C19.3213 17.2015 19.5546 16.9343 19.9355 16.8685C20.0491 16.8486 20.1668 16.8486 20.2824 16.8466C21.9516 16.8466 23.6187 16.8446 25.2878 16.8446C25.4034 16.8446 25.5211 16.8406 25.6367 16.8546C26.0994 16.9044 26.4005 17.2494 26.3746 17.6941C26.3467 18.1488 26.0515 18.4299 25.5709 18.4339C24.6576 18.4399 23.7443 18.4339 22.833 18.4339C22.833 18.4339 22.833 18.4339 22.833 18.4319L22.831 18.4339Z" fill="black" stroke="black"/>
</g>
<defs>
<clipPath id="clip0_252_163">
<rect width="30" height="37.4801" fill="white"/>
</clipPath>
</defs>
</svg>
