<svg width="30" height="30" viewBox="0 0 30 30" fill="none" xmlns="http://www.w3.org/2000/svg">
<g clip-path="url(#clip0_252_189)">
<path d="M6.12809 2.89083C6.31586 2.98835 6.48471 3.05386 6.63027 3.15429C7.25327 3.58952 7.87044 4.03493 8.48762 4.47744C8.87045 4.75109 9.2489 5.03202 9.63318 5.30276C9.67394 5.33188 9.75545 5.33479 9.80349 5.31586C10.4454 5.05677 11.0815 4.78457 11.7249 4.52984C11.8704 4.47161 11.9316 4.38573 11.9549 4.24308C12.0728 3.49927 12.1936 2.75546 12.3159 2.01164C12.3959 1.52402 12.4702 1.03493 12.5691 0.551672C12.639 0.208149 12.9054 0.0043645 13.2591 0.0029089C14.4119 -0.00145791 15.5648 -0.00145791 16.7191 0.0029089C17.0728 0.0043645 17.3275 0.224161 17.3886 0.57205C17.5953 1.754 17.8035 2.9345 17.9956 4.1179C18.0364 4.37118 18.1441 4.48908 18.3872 4.58078C18.9782 4.80349 19.5531 5.06696 20.1295 5.3246C20.23 5.36972 20.294 5.37409 20.3872 5.30567C21.3726 4.58806 22.361 3.87482 23.3523 3.16594C23.7977 2.84716 24.0597 2.87045 24.4512 3.25618C25.0611 3.8588 25.6667 4.46579 26.2722 5.07132C26.4352 5.23289 26.5997 5.39301 26.7569 5.56041C27.0859 5.90829 27.1092 6.16885 26.837 6.56041C26.3654 7.23872 25.8865 7.91266 25.4105 8.58806C25.1776 8.91848 24.9476 9.25182 24.7103 9.57787C24.6332 9.68413 24.6317 9.77147 24.6827 9.89228C24.9403 10.4891 25.1907 11.0888 25.4323 11.6914C25.4964 11.8515 25.591 11.9316 25.7569 11.9578C26.5851 12.0859 27.4119 12.2183 28.2387 12.3523C28.6376 12.4178 29.0364 12.4818 29.4309 12.5633C29.7773 12.6346 29.9927 12.8894 29.9956 13.2402C30.0029 14.4061 30.0029 15.5706 29.9956 16.7365C29.9942 17.0902 29.7773 17.3231 29.4076 17.3886C28.4469 17.5619 27.4847 17.7278 26.5226 17.8952C26.2489 17.9432 25.9767 17.9913 25.7031 18.0349C25.5779 18.0553 25.5051 18.1208 25.4556 18.2402C25.1936 18.8806 24.9199 19.5167 24.6638 20.1587C24.6376 20.2227 24.671 20.3348 24.7147 20.3974C25.2358 21.1295 25.7642 21.8573 26.2911 22.5866C26.4818 22.8515 26.6754 23.1135 26.8588 23.3828C27.1587 23.821 27.1368 24.0597 26.7642 24.4352C26.1266 25.0771 25.4847 25.7176 24.8457 26.3581C24.7001 26.5036 24.5589 26.6521 24.4076 26.7904C24.0975 27.0742 23.8195 27.0961 23.4774 26.8573C22.4541 26.1412 21.4323 25.4236 20.4119 24.7016C20.3173 24.6346 20.2489 24.6128 20.1397 24.671C19.5327 24.9927 18.9097 25.2838 18.2445 25.4687C18.115 25.5051 18.0626 25.5895 18.0422 25.7147C17.8748 26.6827 17.706 27.6507 17.5371 28.6186C17.4891 28.8981 17.444 29.1776 17.3872 29.4541C17.3217 29.7758 17.0553 29.9913 16.7074 29.9927C15.5546 29.9971 14.4017 29.9971 13.2474 29.9927C12.8908 29.9913 12.6375 29.7904 12.5677 29.4352C12.46 28.8923 12.3785 28.3435 12.2853 27.7962C12.1674 27.1004 12.0466 26.4061 11.9316 25.7103C11.9097 25.5764 11.8472 25.5182 11.7176 25.4658C11.0699 25.2067 10.4294 24.9287 9.78456 24.6623C9.7409 24.6448 9.66666 24.6477 9.63027 24.6739C8.66084 25.3523 7.69577 26.0335 6.72925 26.7147C6.70887 26.7293 6.68995 26.7438 6.67103 26.7569C6.13245 27.1368 5.91702 27.1135 5.45123 26.6448C4.754 25.9418 4.05094 25.2445 3.35371 24.5415C2.83405 24.0189 2.81659 23.8341 3.24308 23.2344C3.92285 22.2809 4.60844 21.3319 5.28675 20.3785C5.31877 20.3333 5.33187 20.2445 5.31004 20.1936C5.04221 19.5429 4.76127 18.8981 4.4949 18.246C4.4425 18.1194 4.38136 18.0509 4.24453 18.0277C3.49635 17.9025 2.74817 17.77 1.99999 17.639C1.53129 17.556 1.06258 17.4731 0.59388 17.3857C0.208144 17.3217 0.00144867 17.0742 -6.92974e-06 16.687C-0.00146253 15.5575 -0.00146253 14.4294 -6.92974e-06 13.2999C-6.92974e-06 12.9039 0.190677 12.6419 0.580779 12.5648C1.19504 12.444 1.81513 12.3508 2.43376 12.2475C3.016 12.1499 3.59825 12.0509 4.18194 11.9578C4.36826 11.9287 4.45705 11.8355 4.52838 11.6521C4.77292 11.0247 5.05094 10.4105 5.31004 9.78894C5.33042 9.7409 5.32896 9.66084 5.3013 9.62009C4.60552 8.62008 3.90392 7.623 3.20378 6.62591C2.87918 6.16303 2.88791 5.93304 3.28529 5.52984C4.05967 4.74236 4.83988 3.9607 5.63027 3.18777C5.75982 3.06113 5.9505 2.99563 6.12663 2.89374L6.12809 2.89083ZM1.31149 16.2344C1.70596 16.3071 2.09606 16.3814 2.48616 16.4512C3.28675 16.5953 4.08587 16.7424 4.88791 16.8777C5.22998 16.936 5.42212 17.1368 5.50072 17.46C5.71761 18.345 6.05822 19.1805 6.53711 19.9534C6.74235 20.2838 6.69868 20.559 6.48471 20.8515C6.12081 21.3479 5.76564 21.8515 5.40756 22.3508C5.06695 22.8253 4.7278 23.3013 4.3901 23.7729C4.40174 23.7918 4.40611 23.8035 4.41484 23.8122C4.96943 24.3755 5.52692 24.9374 6.08005 25.5022C6.16157 25.5866 6.22561 25.5502 6.29985 25.4964C7.262 24.8195 8.22852 24.1485 9.18777 23.4672C9.4556 23.278 9.70451 23.2678 9.99417 23.425C10.4338 23.6638 10.8792 23.8952 11.3391 24.0859C11.7555 24.2591 12.195 24.3741 12.6244 24.5124C12.8835 24.5953 13.0451 24.7598 13.0888 25.0349C13.1368 25.3377 13.1936 25.6405 13.2431 25.9432C13.3857 26.8049 13.5284 27.6667 13.6637 28.5298C13.6827 28.6536 13.7234 28.7089 13.8573 28.6972C13.9956 28.6841 14.1354 28.6943 14.2736 28.6943C14.9185 28.6943 15.5648 28.6943 16.2183 28.6943C16.2358 28.6303 16.2533 28.575 16.2649 28.5167C16.3872 27.8472 16.5095 27.1776 16.6303 26.508C16.7162 26.0277 16.7962 25.5459 16.885 25.0655C16.9418 24.7627 17.1048 24.5502 17.4207 24.4745C18.3071 24.262 19.1354 23.9039 19.9112 23.4294C20.2343 23.2314 20.5196 23.2504 20.8297 23.4731C21.7802 24.1557 22.7438 24.8195 23.7001 25.4949C23.7875 25.556 23.8442 25.575 23.9301 25.4891C24.4498 24.9592 24.9767 24.4352 25.4993 23.9083C25.54 23.8675 25.575 23.8195 25.6084 23.7802C25.5968 23.754 25.5939 23.7424 25.5866 23.7322C24.8646 22.7365 24.1412 21.7409 23.4192 20.7438C23.2547 20.5167 23.2314 20.2693 23.3741 20.0291C23.8573 19.2154 24.2212 18.3523 24.4527 17.4338C24.5327 17.1179 24.7249 16.9389 25.0466 16.8836C25.6579 16.7787 26.2678 16.6638 26.8777 16.556C27.4294 16.4585 27.9811 16.3639 28.5342 16.2678C28.6376 16.2504 28.7031 16.2183 28.7016 16.0859C28.6929 15.3552 28.6943 14.6245 28.6929 13.8952C28.6929 13.8311 28.6929 13.7671 28.6929 13.7089C27.9738 13.5924 27.278 13.4803 26.5837 13.3654C26.0437 13.2766 25.5036 13.1819 24.9636 13.0902C24.7103 13.0466 24.5604 12.8865 24.4833 12.6507C24.425 12.4731 24.3785 12.2926 24.3231 12.1135C24.1048 11.3945 23.8093 10.7103 23.4221 10.067C23.2591 9.79621 23.2198 9.52984 23.4134 9.25618C24.1019 8.27947 24.7846 7.29985 25.4774 6.32751C25.5633 6.20669 25.5546 6.14119 25.4527 6.04221C24.9389 5.54148 24.4309 5.03202 23.9214 4.52693C23.8719 4.47744 23.8195 4.43231 23.7758 4.39301C22.7817 5.10917 21.8049 5.8064 20.8355 6.51528C20.5298 6.73944 20.2489 6.75982 19.9199 6.56041C19.1587 6.09752 18.3421 5.75691 17.4745 5.54731C17.1354 5.46579 16.9374 5.2722 16.8777 4.93013C16.7234 4.0524 16.5662 3.17467 16.409 2.29694C16.3508 1.96797 16.2897 1.63901 16.2314 1.32023H13.7045C13.6012 1.95051 13.5022 2.56768 13.4003 3.18632C13.3013 3.78602 13.2023 4.38719 13.0975 4.98544C13.0495 5.26492 12.869 5.43668 12.6026 5.50364C11.6652 5.73799 10.786 6.10771 9.95487 6.59388C9.71324 6.73508 9.4818 6.71179 9.25909 6.56041C9.06986 6.43086 8.88354 6.29694 8.69723 6.16448C7.87336 5.57496 7.05094 4.98544 6.22125 4.39156C5.63173 4.99709 5.03929 5.60407 4.44104 6.21688C5.10625 7.16739 5.78311 8.1441 6.47306 9.11062C6.70451 9.43377 6.73653 9.7278 6.5211 10.0757C6.06258 10.818 5.73216 11.6215 5.52547 12.4702C5.43231 12.853 5.22416 13.064 4.83405 13.1252C3.97088 13.2606 3.11062 13.4105 2.2489 13.5546C1.93595 13.607 1.62445 13.6579 1.31149 13.7103V16.2387V16.2344Z" fill="#CC5A3C" stroke="#CC5A3C"/>
<path d="M9.82388 15.0917C9.7249 12.393 11.8894 9.97235 14.7002 9.82096C17.7962 9.65357 20.099 12.1266 20.1878 14.837C20.2766 17.6055 18.0903 20.0364 15.2824 20.182C12.2547 20.3406 9.81806 17.8836 9.82388 15.0917ZM18.9345 14.9971C18.9345 12.8472 17.2416 11.0772 15.0379 11.067C12.805 11.0568 11.0495 12.8108 11.0626 15.0116C11.0757 17.2271 12.8326 18.9054 14.936 18.936C17.2227 18.968 18.9491 17.1383 18.9345 14.9971Z" fill="black" stroke="black"/>
</g>
<defs>
<clipPath id="clip0_252_189">
<rect width="30" height="30.0015" fill="white"/>
</clipPath>
</defs>
</svg>
