<svg width="30" height="27" viewBox="0 0 30 27" fill="none" xmlns="http://www.w3.org/2000/svg">
<g clip-path="url(#clip0_252_155)">
<path d="M7.14109 5.32598C6.87781 4.95739 6.5975 4.63991 6.40081 4.27596C5.86341 3.27705 5.94704 2.27658 6.55568 1.34426C7.16122 0.415035 8.05483 -0.0371872 9.16835 0.020115C10.5142 0.0898068 11.5503 0.978764 11.8863 2.32304C11.9219 2.46862 11.9793 2.49959 12.1202 2.49959C14.0623 2.4965 16.0043 2.49959 17.9464 2.50579C18.0889 2.50579 18.1385 2.46862 18.1787 2.32769C18.5241 1.10111 19.2783 0.292687 20.5622 0.046443C22.1899 -0.266396 23.8346 0.997349 23.9817 2.65137C24.0685 3.62396 23.7277 4.41844 23.0386 5.08284C22.9363 5.18195 22.9209 5.25629 22.9937 5.38019C23.991 7.08841 24.9853 8.79819 25.9734 10.5111C26.0493 10.6427 26.1313 10.6102 26.2289 10.5807C26.7586 10.4259 27.2929 10.3872 27.8318 10.5343C29.0119 10.8564 29.7367 11.6261 29.9458 12.8217C30.1657 14.0808 29.7708 15.137 28.6975 15.8727C27.9185 16.407 27.0559 16.5262 26.1515 16.2289C26.0121 16.1824 25.9703 16.2428 25.9145 16.3404C25.1789 17.6196 24.4417 18.8973 23.703 20.175C23.4288 20.6489 23.147 21.1181 22.8558 21.6122C22.9627 21.716 23.0866 21.8182 23.1919 21.9374C24.0034 22.8604 24.1784 24.0963 23.6519 25.1618C23.1237 26.2273 21.9901 26.8515 20.7821 26.7988C19.7646 26.7539 18.4095 25.8402 18.1354 24.4928C18.1075 24.358 18.0595 24.3162 17.9201 24.3162C15.9594 24.3193 13.9972 24.3162 12.0366 24.31C11.9127 24.31 11.877 24.3487 11.8507 24.4665C11.4449 26.311 9.45021 27.3192 7.78071 26.5479C5.84173 25.6528 5.42667 23.1996 6.96299 21.7175C7.09928 21.5874 7.09928 21.5053 7.0079 21.3489C6.30789 20.1471 5.61871 18.9376 4.92644 17.7296C4.65387 17.2557 4.37975 16.7818 4.11492 16.3032C4.04523 16.1762 3.98947 16.1329 3.83305 16.1824C2.04275 16.7369 0.181202 15.4901 0.0108447 13.6317C-0.125442 12.1372 1.01131 10.6984 2.49652 10.4816C2.96268 10.4135 3.42265 10.4243 3.87022 10.5869C3.98328 10.6288 4.04213 10.5962 4.10098 10.494C4.79635 9.28758 5.49172 8.08268 6.19483 6.88243C6.50767 6.34968 6.83754 5.82622 7.14109 5.32908V5.32598ZM11.9436 3.387C11.9235 3.46289 11.908 3.52484 11.8925 3.58679C11.7841 4.03281 11.5998 4.44787 11.2932 4.78703C10.446 5.724 9.4084 6.07091 8.16943 5.73949C8.05947 5.71006 7.96965 5.65586 7.88292 5.81228C7.35791 6.76628 6.82361 7.71409 6.28311 8.6588C5.82004 9.46877 5.34149 10.2695 4.87533 11.0655C5.02711 11.2358 5.17114 11.3845 5.30123 11.544C6.27846 12.7474 6.15766 14.5114 5.02401 15.5536C4.9156 15.6543 4.90786 15.7302 4.97755 15.8494C5.23618 16.2877 5.49017 16.7291 5.74261 17.1705C6.45037 18.4141 7.15658 19.6562 7.85814 20.9029C7.94022 21.0485 8.00837 21.1011 8.19111 21.0423C8.44046 20.9633 8.70683 20.9075 8.96702 20.9029C10.3593 20.8858 11.5255 21.8042 11.877 23.1888C11.9189 23.3529 11.987 23.3839 12.1388 23.3839C13.9771 23.3793 15.8154 23.3808 17.6553 23.3793C17.8024 23.3793 17.9882 23.4273 18.0874 23.3576C18.1849 23.2894 18.1927 23.0958 18.2453 22.9596C18.6975 21.7733 19.523 21.05 20.81 20.9091C21.2576 20.8595 21.6958 20.9122 22.131 21.0794C23.1841 19.2736 24.2311 17.4802 25.278 15.6868C25.2594 15.6652 25.247 15.6497 25.2331 15.6373C24.3348 14.8304 23.9972 13.8439 24.2713 12.6591C24.4045 12.0814 24.7019 11.5998 25.1402 11.2064C25.2408 11.1166 25.2811 11.0547 25.1835 10.9215C25.0318 10.7139 24.9094 10.4847 24.7809 10.2617C23.9244 8.78425 23.068 7.30833 22.2178 5.82777C22.1419 5.69458 22.0691 5.67754 21.925 5.71161C21.6323 5.7813 21.3319 5.85719 21.033 5.86184C19.842 5.88197 18.7456 5.09832 18.2856 3.92595C18.2159 3.7494 18.1663 3.56356 18.1075 3.38545H11.9421L11.9436 3.387ZM21.0268 25.8587C22.145 25.8587 23.1005 24.9264 23.0587 23.816C23.0138 22.6003 22.1527 21.8275 21.0516 21.8244C19.9148 21.8213 19.0088 22.7133 19.0104 23.8299C19.0104 24.9651 19.9009 25.8587 21.0268 25.8603V25.8587ZM25.0798 13.3901C25.0503 14.4773 26.0121 15.4762 27.2046 15.405C28.2469 15.343 29.156 14.4091 29.1157 13.3514C29.0708 12.1449 28.0672 11.2854 26.9305 11.3613C25.9052 11.4294 25.0503 12.3277 25.0798 13.3901ZM4.97445 13.3793C4.9791 12.2673 4.11027 11.3706 3.02773 11.3675C1.82748 11.3644 0.946264 12.2363 0.940069 13.4335C0.933874 14.4835 1.8569 15.3693 2.93016 15.4034C3.97244 15.4375 4.97135 14.6647 4.976 13.3793H4.97445ZM9.00573 25.8618C10.0836 25.868 10.9881 24.9512 10.9974 23.8408C11.0067 22.7443 10.0914 21.8491 8.97631 21.8182C7.85814 21.7872 6.95834 22.7861 6.9475 23.785C6.93511 24.9543 7.82562 25.8541 9.00573 25.8618ZM21.0299 0.904427C19.9257 0.907524 19.0119 1.78874 19.0119 2.85425C19.0119 4.03746 19.8947 4.94036 21.0469 4.93261C22.1713 4.92487 23.0571 4.03746 23.0633 2.91155C23.0695 1.81507 22.145 0.901329 21.0299 0.904427ZM8.97321 0.905975C7.85195 0.905975 6.96609 1.81042 6.96764 2.94872C6.97073 4.07153 7.8535 4.94191 8.99334 4.94191C10.0991 4.94191 10.9927 4.03746 10.9974 2.91155C11.002 1.80268 10.0945 0.902878 8.97321 0.904427V0.905975Z" fill="black" stroke="black"/>
<path d="M7.75128 13.3809C7.80704 9.21948 11.1445 6.11122 15.0271 6.11432C19.0568 6.11742 22.3339 9.3155 22.2936 13.4428C22.2534 17.4803 19.0305 20.635 15.0194 20.6474C11.1027 20.6582 7.83336 17.5763 7.75128 13.3809ZM17.248 13.4815C17.2216 13.48 17.1953 13.4784 17.1705 13.4769C17.1705 13.0835 17.1674 12.6901 17.1705 12.2968C17.1721 12.1357 17.1039 12.1047 16.9552 12.1233C16.6161 12.1667 16.2769 12.1992 15.9362 12.224C15.0008 12.2921 14.0669 12.2611 13.1377 12.1419C12.989 12.1233 12.9441 12.1589 12.9379 12.3061C12.8837 13.5977 12.9255 14.8846 13.1315 16.1639C13.1795 16.4581 13.1795 16.4659 13.4815 16.4798C13.9895 16.503 14.499 16.534 15.0085 16.5309C15.5877 16.5263 16.1685 16.4845 16.7477 16.4643C16.8964 16.4597 16.9506 16.3853 16.9645 16.2506C17.059 15.3276 17.155 14.4061 17.2495 13.4831L17.248 13.4815ZM20.906 11.0268C20.5746 11.1739 20.2726 11.3428 19.9504 11.445C19.3619 11.6308 18.7626 11.7795 18.1663 11.939C18.0796 11.9622 18.013 11.9684 18.0254 12.0939C18.1323 13.2028 18.0873 14.3085 17.9433 15.4112C17.9062 15.6962 17.8736 15.9811 17.8365 16.2878C17.9232 16.2831 17.9867 16.2878 18.0471 16.2738C18.3367 16.215 18.6294 16.1639 18.9144 16.0849C19.619 15.8898 20.2974 15.6373 20.8859 15.1835C21.0949 15.0225 21.2173 14.815 21.2637 14.5548C21.3861 13.8904 21.3954 13.2213 21.3257 12.5523C21.2699 12.0242 21.1337 11.5178 20.906 11.0253V11.0268ZM12.227 16.3203C12.21 16.1809 12.1976 16.0926 12.1868 16.0044C12.1419 15.6466 12.0675 15.2904 12.0551 14.9311C12.0257 14.0034 12.0195 13.0758 12.0149 12.1496C12.0149 12.0087 11.9793 11.9622 11.8445 11.9375C11.5162 11.8786 11.1817 11.8244 10.8657 11.7222C10.2927 11.5363 9.73208 11.3149 9.14976 11.1027C9.13737 11.129 9.1033 11.1894 9.07852 11.2545C8.66502 12.3169 8.59997 13.4056 8.80595 14.5222C8.8617 14.8258 8.99799 15.0488 9.24423 15.2161C9.38826 15.3136 9.5292 15.4236 9.68717 15.4871C10.2246 15.7008 10.7651 15.9068 11.3118 16.0942C11.5952 16.1902 11.8941 16.2398 12.2255 16.3203H12.227ZM12.9937 11.2343C14.355 11.3567 15.6776 11.4155 17.0079 11.2142C16.8887 10.2122 16.6594 9.27213 16.2676 8.37388C16.0973 7.98206 15.9176 7.59953 15.6001 7.30063C15.2408 6.96456 14.8598 6.93668 14.5021 7.2743C14.3008 7.46479 14.1304 7.70329 13.991 7.94489C13.5713 8.67124 13.3468 9.47037 13.1702 10.2834C13.1036 10.5885 13.0556 10.8983 12.9937 11.2343ZM16.8437 7.31457C17.5035 8.4792 17.7792 9.75068 17.9836 11.0516C18.9035 10.9169 19.7538 10.6799 20.5467 10.206C19.6345 8.79978 18.4652 7.77144 16.8437 7.31612V7.31457ZM9.59734 10.175C9.65 10.2153 9.68097 10.2494 9.71969 10.268C10.4383 10.604 11.1786 10.8781 11.9638 11.0206C12.1047 11.0454 12.145 10.985 12.1589 10.8596C12.2828 9.76153 12.6158 8.72544 13.0726 7.72498C13.1346 7.59024 13.1981 7.45705 13.2802 7.28514C11.6432 7.77918 10.4507 8.75177 9.59734 10.1766V10.175ZM13.4118 17.4183C13.5512 17.7823 13.6797 18.1431 13.83 18.4947C13.9957 18.8819 14.2109 19.2412 14.5439 19.5122C14.8924 19.7956 15.2439 19.8002 15.5676 19.489C15.7643 19.3 15.9331 19.0724 16.0771 18.84C16.3528 18.3971 16.5092 17.9015 16.6532 17.4168H13.4103L13.4118 17.4183ZM13.2987 19.4177C12.8791 18.792 12.6282 18.1199 12.4609 17.4183C12.4222 17.2557 12.3509 17.2046 12.1961 17.1814C11.335 17.0497 10.4925 16.8515 9.69026 16.5046C9.63761 16.4814 9.57876 16.4721 9.49667 16.4504C10.1812 17.8566 11.9746 19.1978 13.2987 19.4193V19.4177ZM16.774 19.4564C17.7017 19.5401 20.5498 17.282 20.5064 16.503C19.6515 16.8902 18.7502 17.0993 17.8303 17.2356C17.6754 17.2588 17.6289 17.3424 17.5794 17.4756C17.361 18.0595 17.1272 18.6372 16.8979 19.2164C16.8654 19.2969 16.819 19.3713 16.774 19.4564Z" fill="#CC5A3C" stroke="#CC5A3C"/>
</g>
<defs>
<clipPath id="clip0_252_155">
<rect width="30" height="26.8066" fill="white"/>
</clipPath>
</defs>
</svg>
