<svg width="30" height="26" viewBox="0 0 30 26" fill="none" xmlns="http://www.w3.org/2000/svg">
<g clip-path="url(#clip0_252_196)">
<path d="M3.99 10.7434C4.18212 9.87189 4.32967 9.01119 4.56482 8.17509C5.13196 6.15398 6.15251 4.38647 7.6864 2.94019C9.28638 1.43089 11.1861 0.513319 13.3578 0.150596C14.3783 -0.0200075 15.4004 -0.0507467 16.4225 0.0829691C18.4221 0.344253 20.2357 1.07124 21.8188 2.33308C23.4495 3.63182 24.5884 5.28559 25.3277 7.22678C25.6827 8.15818 25.901 9.12493 26.0823 10.1024C26.1084 10.2392 26.1161 10.3806 26.1177 10.5205C26.1177 10.6465 26.1653 10.6988 26.2944 10.7141C28.0589 10.9216 29.5205 12.2603 29.9047 14.0125C30.4027 16.2903 28.898 18.6018 26.6018 19.0307C26.0885 19.126 25.5475 19.1244 25.0233 19.0921C24.4654 19.0568 24.1042 18.5988 24.1042 18.0347C24.1042 16.1027 24.1042 14.1708 24.1042 12.2388C24.1042 10.6696 23.8645 9.1403 23.2635 7.68633C22.2261 5.17647 20.4663 3.38437 17.858 2.56517C14.8348 1.61532 12.0252 2.11176 9.53229 4.1052C8.11828 5.23641 7.21301 6.72726 6.66124 8.43944C6.25395 9.7059 6.0941 11.0092 6.09718 12.3356C6.10025 13.8972 6.0649 15.4603 6.09718 17.0218C6.14328 19.2735 6.96863 21.167 8.8176 22.5319C9.74593 23.2174 10.8095 23.5417 11.9622 23.5539C12.7138 23.5616 13.4669 23.5432 14.2185 23.5678C14.7657 23.5862 15.2144 24.0611 15.2283 24.5806C15.2421 25.1017 14.841 25.6089 14.2953 25.6365C13.47 25.6765 12.64 25.6581 11.8116 25.6396C10.416 25.6089 9.13575 25.177 7.95075 24.4546C6.16019 23.3618 5.01823 21.7741 4.40652 19.7853C4.36963 19.6639 4.3435 19.5379 4.32506 19.4134C4.30354 19.2627 4.24206 19.2059 4.07607 19.209C3.22613 19.2197 2.43766 19.0107 1.73373 18.5189C0.888404 17.9287 0.388891 17.1018 0.147588 16.1181C-0.115233 15.0453 -0.0399219 13.991 0.444222 12.9873C1.07284 11.6886 2.13181 10.9862 3.54735 10.7956C3.71027 10.7741 3.87319 10.7587 3.98846 10.7464L3.99 10.7434Z" fill="#CC5A3C"/>
<path d="M18.2853 14.8778C18.2853 14.2846 18.8032 13.7605 19.3904 13.7589C20.0328 13.7574 20.5139 14.2384 20.517 14.8824C20.5185 15.5187 20.0113 16.0213 19.3719 16.0152C18.7909 16.009 18.2853 15.4788 18.2853 14.8778Z" fill="black"/>
<path d="M10.7772 16.0029C10.1747 16.0029 9.66747 15.4941 9.67055 14.8932C9.67362 14.26 10.1685 13.7743 10.8064 13.7774C11.4319 13.7804 11.933 14.2815 11.9268 14.8932C11.9207 15.5157 11.415 16.0029 10.7772 16.0013V16.0029Z" fill="black"/>
<path d="M15.0791 16.0136C14.4828 16.0075 13.9756 15.4772 13.9832 14.8686C13.9909 14.2707 14.5073 13.7543 15.096 13.7589C15.7215 13.7635 16.218 14.2676 16.2149 14.8962C16.2118 15.5218 15.7046 16.0213 15.0791 16.0151V16.0136Z" fill="black"/>
</g>
<defs>
<clipPath id="clip0_252_196">
<rect width="30" height="25.6581" fill="white"/>
</clipPath>
</defs>
</svg>
