<svg width="26" height="30" viewBox="0 0 26 30" fill="none" xmlns="http://www.w3.org/2000/svg">
<path d="M25.5677 16.1072C25.5677 19.3254 25.5646 22.542 25.5677 25.7603C25.5708 27.7511 24.0239 29.6313 21.861 29.9539C21.5922 29.9939 21.3141 29.9969 21.0407 29.9969C15.529 30 10.0174 29.9969 4.50725 30C2.84975 30 1.54711 29.3441 0.651541 27.94C0.273651 27.3486 0.0217244 26.6927 0.0186521 25.983C0.00329075 22.3024 0.00175461 18.6203 0.000218473 14.9382C0.000218473 12.104 -0.0028538 9.26829 0.0140437 6.43411C0.0201883 5.33424 0.427265 4.36954 1.17383 3.56307C1.98798 2.68286 3.00798 2.23738 4.20924 2.22202C4.78836 2.21434 5.36902 2.21895 5.94814 2.22817C6.08793 2.23124 6.08947 2.15751 6.08947 2.0638C6.08793 1.27423 6.66552 0.400164 7.59335 0.132876C7.90672 0.0422438 8.24621 0.00844876 8.5734 0.00691262C11.4859 -0.00230421 14.3969 -0.00230421 17.3094 0.00691262C17.7411 0.00691262 18.1743 0.0453161 18.5721 0.254231C19.2818 0.627512 19.6828 1.20817 19.7549 2.00696C19.7703 2.17594 19.821 2.22663 19.9961 2.22202C20.4293 2.2082 20.8625 2.22202 21.2957 2.22202C22.477 2.22049 23.4832 2.64907 24.3127 3.47858C25.1529 4.31885 25.5723 5.33731 25.5708 6.53396C25.5646 9.72606 25.5692 12.9181 25.5692 16.1102H25.5677V16.1072ZM23.7197 16.1456H23.7151C23.7151 12.8828 23.7151 9.6216 23.7151 6.35884C23.7151 5.34499 22.8871 4.27891 21.8825 4.12837C21.2266 4.03006 20.5507 4.06539 19.8824 4.05156C19.8486 4.05156 19.7826 4.14988 19.7826 4.20364C19.7749 4.58614 19.7949 4.96864 19.7811 5.3496C19.7334 6.57544 18.7995 7.4664 17.5736 7.46486C14.7579 7.46179 11.9422 7.45872 9.12488 7.45564C8.76849 7.45564 8.41057 7.46793 8.05419 7.45104C7.12483 7.40649 6.26612 6.66914 6.13402 5.74899C6.06182 5.24207 6.08332 4.72132 6.07564 4.20671C6.07411 4.08997 6.04953 4.04388 5.93125 4.04542C5.35212 4.04849 4.76993 4.02391 4.19234 4.0531C2.81903 4.12069 1.84666 5.16833 1.84973 6.54318C1.8528 7.73522 1.8528 8.92573 1.8528 10.1178C1.8528 15.3038 1.84819 20.4898 1.84819 25.6758C1.84819 26.536 2.21226 27.2058 2.90813 27.705C3.39047 28.0506 3.9358 28.1428 4.518 28.1413C7.61485 28.1336 10.7102 28.1367 13.807 28.1367C16.2787 28.1367 18.7519 28.1336 21.2235 28.1397C21.9148 28.1413 22.5139 27.9277 23.007 27.4469C23.5461 26.9231 23.7335 26.2841 23.7274 25.5298C23.7044 22.4023 23.7166 19.2732 23.7166 16.1456H23.7197ZM12.9345 5.61228C14.5014 5.61228 16.0682 5.61228 17.6366 5.61228C17.8594 5.61228 17.907 5.56773 17.907 5.34499C17.907 4.2743 17.9039 3.20515 17.91 2.13446C17.91 1.9701 17.8271 1.90251 17.6919 1.87178C17.6243 1.85642 17.5521 1.85796 17.483 1.85796C15.9407 1.85796 14.4 1.86103 12.8577 1.86103C11.3538 1.86103 9.85147 1.85642 8.34759 1.85796C7.9866 1.85796 7.89904 1.93784 7.90057 2.24967C7.90518 3.25584 7.90979 4.26201 7.91901 5.26972C7.92054 5.55698 7.98506 5.61535 8.27078 5.61535C9.82535 5.61535 11.3799 5.61535 12.9345 5.61535V5.61228Z" fill="#CC5A3C"/>
<path d="M7.7208 15.4989C7.90514 15.4927 8.10637 15.5833 8.28457 15.7631C9.18474 16.674 10.0926 17.5757 10.9928 18.4851C11.0834 18.5773 11.1356 18.5696 11.2232 18.482C13.2709 16.4405 15.3201 14.4005 17.3708 12.3621C17.4876 12.2469 17.6166 12.1393 17.7502 12.0441C18.3217 11.6339 19.0898 12.1424 19.1205 12.7676C19.1343 13.0733 18.9669 13.3252 18.7533 13.5387C18.2495 14.0426 17.7441 14.5464 17.2387 15.0503C15.5059 16.7846 13.7732 18.5189 12.0389 20.2532C11.9667 20.3254 11.8945 20.3961 11.8192 20.4652C11.3783 20.8769 10.8376 20.8784 10.409 20.459C9.79459 19.8569 9.18782 19.2486 8.5795 18.6418C8.06183 18.1241 7.54568 17.6034 7.03108 17.0841C6.79451 16.846 6.65012 16.5742 6.71924 16.2254C6.81141 15.7661 7.17087 15.4881 7.7208 15.4973V15.4989Z" fill="black"/>
</svg>
