<svg width="48" height="50" viewBox="0 0 48 50" fill="none" xmlns="http://www.w3.org/2000/svg">
<path d="M20.3029 48.9975C20.3429 48.6575 20.3929 48.3075 20.4329 47.9675C20.6629 45.9875 20.8929 44.0075 21.1329 42.0275C21.4329 39.5475 21.7529 37.0675 22.0629 34.5875C22.2029 33.4775 21.7629 32.4575 21.5229 31.4175C21.4729 31.2075 21.4129 31.0075 21.3429 30.7575H26.6829C26.4829 31.4775 26.3129 32.1275 26.1129 32.7675C25.8929 33.4375 25.8629 34.1075 25.9529 34.8075C26.3429 37.9575 26.7029 41.1175 27.0729 44.2675C27.2329 45.6775 27.4029 47.0875 27.5829 48.4975C27.6029 48.6875 27.6929 48.8675 27.8729 49.0475C27.9429 48.8375 28.0329 48.6175 28.0929 48.4075C29.5129 43.0675 30.9229 37.7375 32.3429 32.3975C32.6329 31.2875 32.9129 30.1775 33.2229 29.0675C33.3929 28.4675 33.6329 28.3575 34.2129 28.5975C36.2029 29.3975 38.1929 30.1975 40.1729 31.0075C41.4629 31.5375 42.7629 32.0675 44.0229 32.6775C44.5729 32.9475 45.0529 33.3775 45.5429 33.7675C46.4429 34.4975 46.8729 35.4575 46.9729 36.6175C47.2429 39.7675 47.5729 42.9075 47.8829 46.0575C47.9229 46.4275 47.9929 46.7975 47.9929 47.1675C47.9929 48.2075 47.1229 49.1975 46.0929 49.2375C44.3329 49.2975 42.5729 49.3175 40.8229 49.3175C37.6229 49.3175 34.4329 49.2975 31.2329 49.2875C27.7629 49.2875 24.3029 49.2875 20.8329 49.2875C15.7129 49.2875 10.5929 49.3075 5.46288 49.3175C4.41288 49.3175 3.36288 49.3175 2.32288 49.2975C0.822883 49.2775 -0.0571172 48.3975 0.00288283 46.8975C0.0428828 45.7875 0.182883 44.6775 0.292883 43.5675C0.512883 41.2675 0.772883 38.9575 0.962883 36.6575C1.04288 35.6175 1.47288 34.7775 2.17288 34.0575C3.21288 32.9775 4.50288 32.2775 5.88288 31.7375C8.29288 30.7975 10.6929 29.8475 13.0929 28.9075C13.1729 28.8775 13.2529 28.8475 13.3229 28.8075C14.3329 28.3075 14.5529 28.4075 14.8329 29.4875C16.5029 35.7975 18.1829 42.1175 19.8629 48.4275C19.9229 48.6475 20.0629 48.8575 20.1629 49.0675L20.3129 49.0275L20.3029 48.9975Z" fill="#CC5A3C"/>
<path d="M35.1829 12.9075C34.9929 17.1675 33.4129 21.1275 29.8229 24.1175C25.9629 27.3275 20.9129 26.9775 17.2429 23.2875C14.7729 20.7975 13.3429 17.7775 12.9529 14.3175C12.4229 9.64751 13.7729 5.57751 17.4029 2.50751C21.9229 -1.31249 27.8529 -0.592494 31.6829 3.47751C33.5629 5.47751 34.5929 7.88751 35.0529 10.5575C35.1629 11.2175 35.1429 11.9075 35.1929 12.9175L35.1829 12.9075Z" fill="black"/>
</svg>
