<svg width="48" height="39" viewBox="0 0 48 39" fill="none" xmlns="http://www.w3.org/2000/svg">
<g clip-path="url(#clip0_252_118)">
<path d="M48 10.13C47.83 10.55 47.49 10.73 47.08 10.88C45.31 11.52 43.55 12.18 41.79 12.84C39.52 13.68 37.26 14.52 34.99 15.37C32.57 16.27 30.15 17.18 27.73 18.09C26.7 18.48 25.67 18.85 24.65 19.25C24.2 19.42 23.78 19.42 23.32 19.25C21.63 18.59 19.94 17.96 18.24 17.33C15.78 16.41 13.31 15.49 10.84 14.58C10.71 14.53 10.57 14.49 10.45 14.42C10.23 14.29 10.07 14.34 9.93 14.54C9.69 14.91 9.4 15.26 9.22 15.66C8.61 16.95 8.26 18.32 8.12 19.74C8.07 20.25 8.02 20.76 7.96 21.28C7.94 21.45 7.98 21.58 8.11 21.7C8.99 22.44 9.32 23.43 9.23 24.54C9.16 25.38 8.83 26.13 8.2 26.72C8.07 26.84 8.01 26.95 8.08 27.11C8.1 27.16 8.1 27.22 8.11 27.27C8.21 28.23 8.32 29.19 8.42 30.15C8.52 31.12 8.61 32.09 8.72 33.05C8.88 34.51 9.06 35.97 9.22 37.44C9.24 37.65 9.22 37.89 9.13 38.08C9 38.36 8.81 38.42 8.4 38.42C8.46 38.44 8.54 38.47 8.63 38.5H4.59C4.59 38.5 4.59 38.43 4.59 38.42C4.08 38.23 3.92 37.98 3.99 37.42C4.12 36.26 4.26 35.09 4.39 33.93C4.51 32.93 4.63 31.93 4.75 30.94C4.9 29.64 5.06 28.33 5.2 27.03C5.2 26.96 5.18 26.85 5.13 26.81C4.68 26.43 4.38 25.96 4.19 25.41C3.72 24.07 4 22.88 4.95 21.85C5.19 21.59 5.32 21.37 5.35 21C5.45 19.95 5.58 18.91 5.77 17.87C6.06 16.28 6.55 14.77 7.39 13.36C7.27 13.3 7.16 13.24 7.03 13.19C6.26 12.9 5.49 12.61 4.72 12.32C3.33 11.81 1.95 11.3 0.56 10.79C0.16 10.58 0 10.35 0 9.96001C0 9.56001 0.2 9.31001 0.57 9.17001C0.94 9.03001 1.31 8.90001 1.68 8.76001C3.38 8.13001 5.09 7.49001 6.79 6.86001C8.4 6.26001 10.01 5.64001 11.63 5.04001C14.1 4.12001 16.58 3.21001 19.06 2.30001C20.56 1.75001 22.06 1.20001 23.54 0.620013C23.87 0.490013 24.14 0.520013 24.45 0.630013C25.95 1.19001 27.45 1.75001 28.96 2.31001C31.38 3.21001 33.81 4.10001 36.23 5.00001C38.45 5.83001 40.67 6.66001 42.89 7.49001C44.25 8.00001 45.61 8.52001 46.98 9.01001C47.41 9.17001 47.83 9.32001 48.01 9.79001V10.12L48 10.13Z" fill="black"/>
<path d="M36.96 18.02C37 19.16 37.02 20.27 37.07 21.37C37.14 22.8 37.25 24.23 37.33 25.66C37.38 26.54 37.03 27.3 36.5 27.98C35.87 28.79 35.04 29.36 34.16 29.85C32.72 30.64 31.17 31.14 29.58 31.49C27.2 32.01 24.79 32.17 22.36 32.04C21.13 31.97 19.91 31.77 18.7 31.53C16.94 31.19 15.26 30.64 13.69 29.77C12.78 29.27 11.95 28.67 11.35 27.8C10.89 27.15 10.66 26.44 10.7 25.64C10.77 24.17 10.83 22.7 10.89 21.23C10.93 20.23 10.97 19.22 11.01 18.22C11.01 18 11.12 18.02 11.27 18.08C12.94 18.71 14.61 19.35 16.28 19.98C17.9 20.59 19.52 21.18 21.15 21.79C21.73 22.01 22.32 22.23 22.9 22.45C23.59 22.72 24.29 22.74 24.97 22.49C26.84 21.81 28.7 21.1 30.57 20.41C32.26 19.78 33.95 19.16 35.64 18.53C36.02 18.39 36.41 18.23 36.79 18.09C36.85 18.07 36.91 18.06 36.99 18.04L36.96 18.02Z" fill="#CC5A3C"/>
</g>
<defs>
<clipPath id="clip0_252_118">
<rect width="48" height="37.92" fill="white" transform="translate(0 0.540009)"/>
</clipPath>
</defs>
</svg>
