<svg width="48" height="37" viewBox="0 0 48 37" fill="none" xmlns="http://www.w3.org/2000/svg">
<g clip-path="url(#clip0_252_74)">
<path d="M48 0.542725C47.1845 0.774923 46.369 1.01084 45.5517 1.23746C42.5034 2.08824 39.4551 2.93901 36.4068 3.78793C34.8371 4.22446 33.2693 4.66099 31.6978 5.08638C31.6328 5.10495 31.5083 5.04365 31.4638 4.98235C30.9622 4.29505 30.4718 3.60031 29.9777 2.90929C29.4464 2.16625 28.9151 1.42508 28.3857 0.683901C28.356 0.641177 28.3356 0.591022 28.3096 0.544582C34.8724 0.544582 41.4371 0.544582 48 0.544582V0.542725Z" fill="#CC5A3C"/>
<path d="M20.7492 26.9167C19.5548 25.6313 18.3752 24.3625 17.1994 23.0938C16.2316 22.0498 15.2693 21.0022 14.2978 19.9638C14.1771 19.8337 14.1659 19.7409 14.2477 19.583C15.4105 17.3836 16.5641 15.1824 17.7214 12.9793C18.9176 10.7019 20.1176 8.42817 21.3046 6.1452C21.4384 5.887 21.6279 5.887 21.8619 5.89814C24.4179 6.03375 26.974 6.16378 29.5319 6.29381C29.7938 6.30681 30.0557 6.29381 30.3306 6.29381C30.221 6.94582 30.1152 7.57368 30.0093 8.20155C29.6749 10.1743 29.3405 12.1452 29.008 14.118C28.722 15.8084 28.421 17.4969 28.1647 19.1929C28.1034 19.5997 27.9325 19.8858 27.652 20.1588C25.3857 22.3768 23.1269 24.604 20.8644 26.8276C20.8384 26.8536 20.8049 26.874 20.7511 26.9149L20.7492 26.9167Z" fill="#CC5A3C"/>
<path d="M13.2743 18.918C8.82539 14.1774 4.41177 9.47399 0 4.77244C0.0130031 4.75387 0.0241486 4.73715 0.0371517 4.71857C6.7709 5.08452 13.5046 5.45046 20.2737 5.81826C17.9331 10.2003 15.613 14.5433 13.2743 18.918Z" fill="black"/>
<path d="M11.0266 36.4573C12.2136 31.6015 13.3876 26.8071 14.5653 21.9867C15.0984 22.557 15.613 23.1012 16.122 23.6492C17.2941 24.9142 18.4662 26.1811 19.6365 27.4461C19.9263 27.7582 19.9244 27.7563 19.6217 28.0536C17.3183 30.3105 15.0148 32.5693 12.7096 34.8263C12.2173 35.3074 11.7251 35.7885 11.2309 36.2678C11.1789 36.318 11.1232 36.3663 11.0266 36.4554V36.4573Z" fill="black"/>
<path d="M30.1208 5.17369C27.4588 5.07152 24.8359 4.97121 22.1573 4.86904C23.7474 3.42756 25.3003 2.02136 26.8793 0.589165C27.9585 2.1161 29.0285 3.62817 30.1208 5.17369Z" fill="#CC5A3C"/>
<path d="M8.31455 0.628174C11.9424 1.96564 15.5498 3.29381 19.1573 4.62384C19.1554 4.63684 19.1517 4.6517 19.1498 4.66471C18.5127 4.61455 17.8755 4.55697 17.2384 4.5161C16.0811 4.4418 14.9238 4.3805 13.7666 4.30991C12.9418 4.25975 12.117 4.19845 11.2904 4.14644C10.8892 4.12043 10.4879 4.10929 10.0867 4.07771C10.0161 4.07214 9.91765 4.02012 9.88978 3.96068C9.35851 2.87957 8.83653 1.79474 8.31455 0.709908C8.30898 0.696904 8.31455 0.680186 8.31455 0.628174Z" fill="black"/>
</g>
<defs>
<clipPath id="clip0_252_74">
<rect width="48" height="35.9146" fill="white" transform="translate(0 0.542725)"/>
</clipPath>
</defs>
</svg>
