<svg width="48" height="49" viewBox="0 0 48 49" fill="none" xmlns="http://www.w3.org/2000/svg">
<g clip-path="url(#clip0_252_93)">
<path d="M40.6501 11.54C39.4501 11.54 38.3201 11.54 37.1901 11.54C36.9701 11.54 36.9201 11.64 36.9201 11.84C36.9201 12.48 36.9201 13.12 36.9201 13.76C36.9201 23.98 36.9201 34.2 36.9201 44.42C36.9201 44.78 37.0301 44.84 37.3601 44.84C40.1901 44.84 43.0201 44.84 45.8601 44.84C47.0401 44.84 47.7601 45.37 47.9701 46.39C48.1701 47.34 47.4501 48.36 46.4801 48.44C45.8101 48.5 45.1301 48.46 44.4501 48.46C39.7801 48.46 35.1201 48.46 30.4501 48.46C21.5301 48.46 12.6201 48.46 3.70009 48.46C3.12009 48.46 2.54009 48.48 1.96009 48.48C0.850086 48.48 0.0100863 47.69 8.63345e-05 46.65C-0.00991367 45.69 0.850086 44.85 1.91009 44.82C2.40009 44.8 2.90009 44.8 3.39009 44.82C3.66009 44.83 3.72009 44.73 3.72009 44.48C3.72009 39.94 3.72009 35.39 3.72009 30.85C3.72009 23.94 3.72009 17.03 3.72009 10.12C3.72009 9.92 3.73009 9.73 3.76009 9.53C3.90009 8.49 4.61009 7.85 5.66009 7.85C7.36009 7.85 9.06009 7.85 10.7601 7.87C11.0701 7.87 11.1301 7.78 11.1301 7.49C11.1201 5.89 11.1101 4.29 11.1201 2.69C11.1201 2.41 11.1401 2.12 11.2001 1.85C11.3501 1.04 12.1001 0.5 13.0601 0.5C18.9301 0.5 24.8101 0.51 30.6801 0.51C32.0701 0.51 33.4601 0.51 34.8501 0.5C36.1901 0.5 36.9301 1.23 36.9201 2.57C36.9201 4.23 36.9201 5.89 36.9201 7.56C36.9201 7.82 37.0001 7.89 37.2601 7.89C38.9701 7.89 40.6801 7.89 42.4001 7.89C43.2901 7.89 43.9401 8.33 44.2101 9.13C44.2801 9.35 44.3201 9.59 44.3201 9.82C44.3201 19.6 44.3201 29.38 44.3201 39.15C44.3201 39.93 44.0401 40.54 43.3401 40.92C42.6501 41.29 41.9901 41.21 41.3601 40.76C40.9801 40.49 40.7701 40.1 40.7001 39.65C40.6601 39.4 40.6501 39.14 40.6501 38.88C40.6501 30.06 40.6501 21.25 40.6501 12.43C40.6501 12.15 40.6501 11.87 40.6501 11.55V11.54ZM11.0901 11.54C9.88009 11.54 8.75009 11.54 7.62009 11.54C7.40009 11.54 7.35009 11.65 7.36009 11.84C7.36009 12.09 7.36009 12.33 7.36009 12.58C7.36009 23.18 7.36009 33.79 7.36009 44.39C7.36009 44.73 7.43009 44.85 7.80009 44.85C11.2501 44.84 14.7001 44.85 18.1401 44.86C18.4301 44.86 18.4901 44.76 18.4901 44.5C18.4801 43.4 18.4801 42.31 18.4901 41.21C18.4901 40.52 18.4601 39.83 18.5301 39.14C18.6301 38.07 19.3701 37.45 20.4401 37.44C22.8201 37.44 25.1901 37.44 27.5701 37.44C28.7901 37.44 29.5501 38.21 29.5501 39.42C29.5501 41.11 29.5501 42.79 29.5501 44.48C29.5501 44.77 29.6401 44.83 29.9101 44.83C30.7201 44.82 31.5401 44.83 32.3501 44.83C32.9701 44.83 33.2801 44.5167 33.2801 43.89C33.2801 30.91 33.2801 17.93 33.2801 4.95C33.2801 4.68 33.2801 4.42 33.2801 4.14C33.1701 4.13 33.1301 4.11 33.0801 4.11C27.2801 4.11 21.4801 4.11 15.6801 4.12C14.7701 4.12 14.7701 4.12 14.7701 5.06C14.7701 15.99 14.7701 26.93 14.7701 37.86C14.7701 38.36 14.7901 38.87 14.7701 39.37C14.7301 40.26 14.0201 40.99 13.1301 41.09C12.2401 41.19 11.4001 40.61 11.1901 39.74C11.1201 39.46 11.1101 39.15 11.1101 38.86C11.1101 30.04 11.1101 21.23 11.1101 12.41C11.1101 12.12 11.1101 11.82 11.1101 11.5L11.0901 11.54ZM25.8701 41.1C24.6801 41.1 23.5801 41.1 22.4701 41.1C22.2101 41.1 22.1301 41.18 22.1401 41.44C22.1501 42.46 22.1601 43.48 22.1401 44.5C22.1401 44.79 22.2401 44.85 22.5001 44.84C23.5101 44.84 24.5101 44.84 25.5201 44.85C25.8001 44.85 25.8801 44.77 25.8801 44.5C25.8601 43.75 25.8801 43 25.8701 42.25C25.8701 41.87 25.8701 41.5 25.8701 41.1Z" fill="#CC5A3C"/>
<path d="M18.49 7.93C18.61 7.92 18.75 7.89 18.88 7.89C19.85 7.89 20.83 7.89 21.8 7.89C22.04 7.89 22.16 7.94 22.16 8.22C22.15 9.2 22.16 10.19 22.16 11.17C22.16 11.44 22.1 11.57 21.79 11.56C20.79 11.53 19.8 11.53 18.8 11.53C18.62 11.53 18.49 11.53 18.49 11.29C18.49 10.18 18.49 9.08 18.49 7.93Z" fill="black"/>
<path d="M25.86 9.68C25.86 9.19 25.87 8.69 25.86 8.2C25.85 7.96 25.95 7.89 26.15 7.9C27.18 7.9 28.22 7.9 29.25 7.9C29.48 7.9 29.54 8 29.54 8.22C29.54 9.22 29.54 10.21 29.54 11.21C29.54 11.51 29.42 11.58 29.14 11.57C28.16 11.55 27.17 11.54 26.19 11.54C25.95 11.54 25.86 11.47 25.87 11.23C25.88 10.71 25.87 10.2 25.87 9.68H25.85H25.86Z" fill="black"/>
<path d="M18.49 15.32C18.61 15.31 18.73 15.28 18.85 15.28C19.83 15.28 20.82 15.28 21.8 15.28C22.04 15.28 22.15 15.34 22.15 15.61C22.14 16.59 22.15 17.58 22.15 18.56C22.15 18.84 22.08 18.95 21.77 18.94C20.77 18.91 19.78 18.92 18.78 18.9C18.68 18.9 18.5 18.77 18.49 18.7C18.47 17.58 18.48 16.46 18.48 15.31L18.49 15.32Z" fill="black"/>
<path d="M25.88 15.33C26 15.32 26.13 15.29 26.26 15.29C27.23 15.29 28.21 15.29 29.18 15.29C29.45 15.29 29.55 15.37 29.54 15.65C29.53 16.62 29.53 17.6 29.54 18.57C29.54 18.87 29.45 18.97 29.14 18.97C28.16 18.94 27.17 18.94 26.19 18.94C26.01 18.94 25.88 18.94 25.88 18.7C25.88 17.59 25.88 16.49 25.88 15.34V15.33Z" fill="black"/>
<path d="M20.29 26.31C19.79 26.31 19.28 26.31 18.78 26.31C18.58 26.31 18.49 26.26 18.49 26.04C18.49 24.99 18.47 23.95 18.48 22.9C18.48 22.82 18.64 22.68 18.72 22.68C19.78 22.66 20.84 22.66 21.9 22.68C21.99 22.68 22.14 22.85 22.15 22.94C22.17 23.97 22.16 25.01 22.17 26.04C22.17 26.27 22.07 26.34 21.85 26.33C21.33 26.32 20.82 26.33 20.3 26.33C20.3 26.33 20.3 26.31 20.3 26.3L20.29 26.31Z" fill="black"/>
<path d="M27.67 26.31C27.17 26.31 26.66 26.31 26.16 26.31C25.98 26.31 25.88 26.28 25.88 26.07C25.88 25.01 25.86 23.95 25.87 22.89C25.87 22.81 26.03 22.68 26.12 22.68C27.18 22.67 28.24 22.66 29.3 22.68C29.38 22.68 29.54 22.85 29.54 22.95C29.56 23.97 29.54 24.99 29.56 26.02C29.56 26.29 29.44 26.35 29.2 26.34C28.7 26.33 28.19 26.34 27.69 26.34C27.69 26.34 27.69 26.32 27.69 26.31H27.67Z" fill="black"/>
<path d="M20.29 33.7C19.8 33.7 19.3 33.68 18.81 33.7C18.54 33.71 18.48 33.61 18.48 33.36C18.48 32.35 18.47 31.34 18.48 30.33C18.48 30.24 18.61 30.07 18.68 30.07C19.76 30.05 20.85 30.05 21.93 30.07C22 30.07 22.14 30.24 22.14 30.33C22.16 31.36 22.14 32.4 22.15 33.43C22.15 33.65 22.06 33.73 21.84 33.73C21.32 33.72 20.81 33.73 20.29 33.73C20.29 33.72 20.29 33.71 20.29 33.7Z" fill="black"/>
<path d="M25.88 30.07C26.1 30.07 26.29 30.07 26.49 30.07C27.39 30.07 28.29 30.07 29.18 30.07C29.41 30.07 29.54 30.11 29.54 30.39C29.53 31.37 29.53 32.36 29.54 33.34C29.54 33.64 29.45 33.75 29.14 33.74C28.16 33.71 27.17 33.71 26.19 33.71C26.02 33.71 25.87 33.72 25.87 33.48C25.87 32.37 25.87 31.27 25.87 30.08L25.88 30.07Z" fill="black"/>
</g>
<defs>
<clipPath id="clip0_252_93">
<rect width="48" height="48" fill="white" transform="translate(0 0.5)"/>
</clipPath>
</defs>
</svg>
