<svg width="48" height="41" viewBox="0 0 48 41" fill="none" xmlns="http://www.w3.org/2000/svg">
<g clip-path="url(#clip0_252_124)">
<path d="M19.36 31.49C19.73 29.21 18.5499 27.97 15.7899 27.69C16.0199 26.63 15.7899 25.67 15.0399 24.88C14.2999 24.1 13.3499 23.85 12.3399 23.94C12.3399 23.56 12.3799 23.2 12.3399 22.85C12.0499 20.5 9.43995 19.29 7.47995 20.61C6.89995 21 6.39995 21.49 5.87995 21.96C5.36995 22.41 4.88995 22.89 4.35995 23.39C4.39995 23.41 4.34995 23.4 4.31995 23.37C2.39995 21.14 0.84995 18.69 0.25995 15.77C-0.67005 11.14 0.88995 7.38997 4.52995 4.51997C9.27995 0.749971 15.79 0.529971 20.85 3.87997C21.46 4.27997 22.03 4.72997 22.68 5.19997C22.28 5.58997 21.94 5.92997 21.6 6.26997C19.87 7.95997 18.1399 9.64997 16.4 11.33C15.1399 12.55 14.78 13.99 15.3899 15.38C16.0399 16.85 17.68 17.84 19.29 17.74C20.31 17.68 21.16 17.28 21.87 16.54C22.7 15.67 23.5299 14.81 24.3899 13.96C24.5399 13.81 24.8099 13.7 25.01 13.72C26.6399 13.86 28.26 13.78 29.86 13.4C30.01 13.37 30.25 13.44 30.35 13.54C34.09 17.29 37.81 21.05 41.54 24.81C42.42 25.7 42.49 26.38 41.63 27.32C41.22 27.76 40.6699 28.1 40.1199 28.37C39.5599 28.65 39.02 28.48 38.54 28.02C35.66 25.23 32.76 22.45 29.86 19.66C29.71 19.51 29.5499 19.37 29.4 19.22C29.18 19 28.92 18.91 28.68 19.15C28.41 19.41 28.52 19.67 28.76 19.9C29.62 20.72 30.4699 21.54 31.33 22.36C33.4399 24.38 35.54 26.41 37.65 28.43C38.45 29.2 38.54 30.04 37.91 30.96C37.5499 31.49 37.06 31.88 36.45 32.08C35.78 32.3 35.18 32.2 34.6399 31.7C31.6199 28.87 28.6 26.05 25.57 23.22C25.43 23.09 25.29 22.9 25.12 22.84C24.94 22.78 24.59 22.76 24.53 22.86C24.43 23.01 24.42 23.34 24.53 23.49C24.73 23.78 25.0399 24 25.3099 24.25C28.1999 26.95 31.09 29.65 33.9799 32.34C34.56 32.88 34.7 33.47 34.38 34.2C33.9799 35.12 33.2799 35.71 32.32 35.99C31.67 36.18 31.09 36.03 30.6 35.55C29.3 34.29 28 33.03 26.7 31.77C26.6 31.68 26.5 31.54 26.3799 31.52C26.2199 31.49 25.9799 31.49 25.8899 31.59C25.7899 31.71 25.76 31.95 25.79 32.12C25.81 32.25 25.9699 32.36 26.07 32.46C27.36 33.71 28.65 34.95 29.93 36.21C30.6399 36.9 30.77 37.7 30.37 38.64C29.98 39.54 29.0999 40.15 28.2099 40.13C27.66 40.11 27.21 39.87 26.84 39.49C25.58 38.25 24.33 37.01 23.09 35.76C23 35.67 22.9399 35.46 22.9699 35.33C23.6099 33.1 21.6699 31.18 19.5499 31.5C19.49 31.5 19.43 31.49 19.34 31.48L19.36 31.49ZM24 30.29C24.15 30.17 24.36 30.08 24.37 29.98C24.38 29.78 24.33 29.52 24.2 29.38C23.38 28.55 22.54 27.74 21.7 26.93C21.47 26.71 21.21 26.57 20.95 26.85C20.7 27.12 20.83 27.38 21.0599 27.6C21.8899 28.4 22.7099 29.21 23.5499 30C23.66 30.11 23.82 30.17 24 30.28V30.29Z" fill="#CC5A3C"/>
<path d="M42.8 24.76C38.87 20.79 35.02 16.9 31.13 12.97C31.29 12.89 31.41 12.81 31.54 12.75C32.9 12.08 33.95 11.07 34.76 9.8C34.95 9.51 35.08 9.2 34.71 8.97C34.36 8.76 34.16 9.01 33.98 9.29C32.66 11.39 30.69 12.45 28.29 12.7C27.13 12.82 25.96 12.75 24.79 12.72C24.44 12.72 24.18 12.78 23.94 13.04C23 14.03 22.06 15.03 21.08 15.98C19.52 17.5 16.74 16.75 16.13 14.66C15.82 13.6 16.25 12.75 16.99 12.03C19.18 9.89 21.36 7.75 23.56 5.64C25.94 3.36 28.72 1.81 31.96 1.12C37.8 -0.120003 43.91 2.8 46.54 8.18C48.92 13.05 48.3 17.68 45.16 22C44.46 22.96 43.6 23.81 42.79 24.74L42.8 24.76Z" fill="black"/>
<path d="M14.26 34.57C13.36 34.55 12.55 34 12.24 33.19C11.93 32.37 12.16 31.51 12.88 30.89C13.55 30.3 14.21 29.69 14.92 29.13C15.68 28.52 16.54 28.48 17.4 28.91C18.19 29.31 18.63 30.09 18.48 30.99C18.41 31.4 18.21 31.85 17.92 32.15C17.24 32.84 16.51 33.49 15.73 34.07C15.33 34.37 14.79 34.49 14.31 34.7C14.29 34.66 14.28 34.62 14.26 34.58V34.57Z" fill="black"/>
<path d="M17.97 38.32C17.02 38.32 16.21 37.77 15.9 36.94C15.59 36.1 15.83 35.26 16.57 34.61C17.21 34.05 17.84 33.47 18.49 32.93C19.38 32.19 20.6 32.2 21.46 32.95C22.37 33.74 22.43 35.11 21.56 35.94C20.87 36.6 20.15 37.25 19.39 37.82C19 38.12 18.48 38.24 18.01 38.44C17.99 38.4 17.98 38.36 17.96 38.32H17.97Z" fill="black"/>
<path d="M14.94 26.67C14.94 27.51 14.74 28.01 14.31 28.4C13.6 29.04 12.88 29.68 12.14 30.29C11.39 30.91 10.25 30.93 9.46001 30.38C8.68001 29.84 8.34001 28.9 8.67001 28.01C8.78001 27.72 8.95001 27.42 9.18001 27.21C9.90001 26.54 10.64 25.87 11.42 25.27C12.14 24.71 12.97 24.68 13.78 25.08C14.54 25.45 14.93 26.08 14.95 26.67H14.94Z" fill="black"/>
<path d="M9.16002 20.99C10.17 20.99 11.04 21.6 11.33 22.43C11.62 23.27 11.35 24.09 10.58 24.73C9.94002 25.27 9.32002 25.83 8.69002 26.38C7.77002 27.19 6.36002 27.1 5.54002 26.18C4.75002 25.29 4.87002 24.05 5.85002 23.19C6.45002 22.66 7.06002 22.13 7.67002 21.6C8.12002 21.2 8.65002 21 9.16002 20.98V20.99Z" fill="black"/>
</g>
<defs>
<clipPath id="clip0_252_124">
<rect width="48" height="39.28" fill="white" transform="translate(0 0.859985)"/>
</clipPath>
</defs>
</svg>
