<svg width="48" height="45" viewBox="0 0 48 45" fill="none" xmlns="http://www.w3.org/2000/svg">
<g clip-path="url(#clip0_252_61)">
<path d="M0 21.74C1.98 19.56 3.97 17.37 5.97 15.17C5.93 15.13 5.89 15.07 5.84 15.03C4.47 13.74 3.11 12.45 1.74 11.15C1.22 10.65 0.69 10.16 0.16 9.67001C-0.01 9.51001 0.09 9.43001 0.24 9.35001C1.21 8.84 2.18 8.34001 3.15 7.83001C7.52 5.58001 11.87 3.34001 16.23 1.09001C16.62 0.890006 17.02 0.690005 17.42 0.490005C19.06 1.71001 20.71 2.92001 22.35 4.14001C22.8 4.47001 23.26 4.80001 23.71 5.14001C23.84 5.23001 23.93 5.23001 24.06 5.14001C26.16 3.63001 28.27 2.12001 30.38 0.620005C30.46 0.560005 30.62 0.550005 30.71 0.590005C33.62 2.10001 36.52 3.61001 39.42 5.12001C41.47 6.19001 43.52 7.26001 45.57 8.33001C46.36 8.74001 47.14 9.16001 47.99 9.61001C45.99 11.46 44 13.3 42 15.15C44 17.45 45.98 19.72 48 22.04C42.57 25.05 37.17 28.04 31.74 31.05C29.54 28.72 27.31 26.37 25.07 24C30.03 21.38 34.97 18.72 39.91 16.07L39.87 15.98C39.27 15.66 38.67 15.34 38.07 15.01C34.86 13.23 31.66 11.45 28.45 9.68001C27.04 8.90001 25.63 8.13001 24.22 7.35001C24.06 7.26001 23.94 7.26001 23.78 7.35001C21.06 8.86001 18.33 10.37 15.61 11.88C13.27 13.17 10.94 14.46 8.6 15.75C8.44 15.84 8.27 15.91 8.01 16.03C13.03 18.7 17.98 21.35 22.98 23.97C20.78 26.39 18.58 28.81 16.39 31.22C10.94 28.07 5.5 24.92 0.01 21.75L0 21.74Z" fill="black"/>
<path d="M25.05 27.01C25.11 27.06 25.17 27.1 25.21 27.15C27.1 29.15 28.9801 31.16 30.8701 33.16C31.3101 33.63 31.32 33.63 31.88 33.32C34.09 32.1 36.3 30.88 38.5201 29.65C39.64 29.03 40.7601 28.41 41.8801 27.78C41.9201 27.76 41.97 27.74 42.03 27.72C42.03 28.3 42.03 28.85 42.03 29.41C42.03 31.34 42.03 33.28 42.03 35.21C42.03 35.36 41.99 35.45 41.85 35.52C39.12 36.98 36.39 38.44 33.66 39.9C30.92 41.36 28.1801 42.82 25.4401 44.28C25.3201 44.34 25.21 44.41 25.06 44.5V27L25.05 27.01Z" fill="#CC5A3C"/>
<path d="M22.95 27.1V44.5C22.36 44.19 21.8 43.89 21.25 43.6C16.86 41.26 12.47 38.91 8.08997 36.57C7.44997 36.23 6.81997 35.88 6.17997 35.55C6.01997 35.47 5.96997 35.38 5.96997 35.2C5.96997 33.02 5.96997 30.83 5.96997 28.65C5.96997 28.3 5.96997 27.96 5.96997 27.6C6.00997 27.62 6.06997 27.64 6.12997 27.68C9.50997 29.64 12.9 31.59 16.28 33.55C16.79 33.84 16.79 33.85 17.18 33.42C19.08 31.33 20.98 29.24 22.88 27.15C22.9 27.13 22.92 27.13 22.96 27.11L22.95 27.1Z" fill="#CC5A3C"/>
</g>
<defs>
<clipPath id="clip0_252_61">
<rect width="48" height="44.02" fill="white" transform="translate(0 0.490005)"/>
</clipPath>
</defs>
</svg>
