<svg width="46" height="49" viewBox="0 0 46 49" fill="none" xmlns="http://www.w3.org/2000/svg">
<g clip-path="url(#clip0_252_84)">
<path d="M13.3781 40.1234C13.5542 39.2742 13.7113 38.5235 13.8659 37.7727C14.0545 36.8557 14.2347 35.9371 14.4331 35.0218C14.491 34.7556 14.4579 34.558 14.2405 34.3662C13.9106 34.0751 13.6121 33.7477 13.3029 33.4335C13.0465 33.173 13.0482 32.9126 13.2847 32.6306C13.8635 31.9369 14.5415 31.4913 15.5022 31.6161C15.8412 31.6599 16.1926 31.6484 16.5341 31.6178C17.3113 31.5483 17.9116 31.827 18.435 32.4033C19.0204 33.0474 19.0989 33.0912 18.4309 33.6121C17.5644 34.2868 17.3849 35.0152 17.7 36.0603C18.0596 37.2551 18.225 38.5086 18.4763 39.7356C18.497 39.8373 18.5326 39.9365 18.5847 40.1192C19.1543 39.2792 19.6868 38.5127 20.1995 37.733C21.9408 35.0847 23.6358 32.409 24.9149 29.4969C25.6235 27.8838 25.7773 27.1537 25.7582 25.5968C25.9079 25.6811 26.0336 25.744 26.151 25.8176C29.8601 28.1558 31.8214 31.5078 31.9074 35.8999C31.9586 38.4896 31.9297 41.0817 31.9123 43.6721C31.8941 46.4437 29.8287 48.4942 27.0539 48.4967C19.6678 48.5041 12.2817 48.505 4.89565 48.4967C2.07699 48.4934 0.0272725 46.4263 0.0181774 43.6035C0.00990906 41.0676 -0.0198568 38.5317 0.0206579 35.9967C0.0909385 31.6087 2.01001 28.2344 5.70429 25.868C5.83989 25.7812 5.98541 25.7109 6.13342 25.629C6.15243 28.6131 7.66801 31.0158 9.0728 33.4277C10.3536 35.6271 11.8071 37.7256 13.1855 39.8687C13.2218 39.9249 13.2657 39.9762 13.3789 40.1275L13.3781 40.1234Z" fill="#CC5A3C"/>
<path d="M26.3123 18.7076C26.0874 22.9766 24.423 26.5303 20.9528 29.0877C17.738 31.4565 13.8842 31.3954 10.734 28.8942C7.24888 26.1268 5.4869 22.4557 5.68782 17.9759C5.89535 13.3448 9.60204 9.30078 14.1785 8.55664C20.0953 7.59503 25.4218 11.5332 26.2279 17.4715C26.2833 17.88 26.2858 18.295 26.3131 18.7076H26.3123ZM22.3815 18.7581C22.3352 18.3736 22.3088 17.9321 22.2269 17.5013C21.6407 14.4172 18.8195 12.2063 15.671 12.3501C12.515 12.494 9.84512 14.9902 9.63511 18.1363C9.43419 21.1592 10.6347 23.6612 12.9027 25.6059C14.8847 27.3058 17.1469 27.2571 19.1238 25.5464C21.1653 23.7794 22.1839 21.4932 22.3815 18.7589V18.7581Z" fill="black"/>
<path d="M45.8932 10.2004C45.8833 15.5458 41.5474 19.8693 36.2011 19.8652C30.8383 19.8602 26.5173 15.5194 26.5231 10.1425C26.5297 4.81523 30.9028 0.474367 36.2383 0.499998C41.5962 0.52563 45.9032 4.85244 45.8932 10.2004ZM36.1242 16.2916C39.396 16.3627 42.2444 13.6516 42.3122 10.4021C42.3842 6.9807 39.7408 4.15294 36.3987 4.07521C32.9682 3.99584 30.1636 6.68304 30.1041 10.1061C30.0462 13.4449 32.7458 16.2181 36.1242 16.2916Z" fill="#CC5A3C"/>
<path d="M37.1776 7.17087C37.1776 7.55617 37.1776 7.9423 37.1776 8.32761C37.1776 9.25366 37.4281 9.63069 38.2946 9.99698C38.7891 10.2062 39.2868 10.4054 39.7796 10.6179C40.3634 10.8693 40.604 11.3902 40.3898 11.9152C40.1782 12.4345 39.6242 12.642 39.0421 12.4097C38.608 12.236 38.1797 12.0467 37.7464 11.8706C37.3115 11.6936 36.9147 11.4968 36.383 11.6548C35.7984 11.8284 35.1882 11.458 34.8922 10.9321C34.583 10.3839 34.6549 9.74727 35.0427 9.22885C35.1552 9.0792 35.2321 8.86505 35.2354 8.67901C35.2544 7.6463 35.2362 6.61359 35.2494 5.58088C35.2577 4.9376 35.657 4.54486 36.2424 4.56057C36.76 4.57462 37.1528 4.9467 37.1701 5.47669C37.1883 6.04059 37.1743 6.60532 37.1743 7.17004H37.1776V7.17087Z" fill="black"/>
</g>
<defs>
<clipPath id="clip0_252_84">
<rect width="45.8932" height="48" fill="white" transform="translate(0 0.5)"/>
</clipPath>
</defs>
</svg>
