<svg width="26" height="49" viewBox="0 0 26 49" fill="none" xmlns="http://www.w3.org/2000/svg">
<g clip-path="url(#clip0_252_68)">
<path d="M19.7707 27.6973C19.6401 28.3533 19.5307 28.9667 19.3921 29.5693C19.2401 30.22 18.9201 30.4707 18.2507 30.436C16.9654 30.372 15.6801 30.2413 14.3947 30.2147C13.0187 30.1853 11.6427 30.2227 10.2667 30.2627C9.25606 30.292 8.25073 30.3907 7.24006 30.4227C6.49339 30.4467 6.14139 30.1347 6.00006 29.4013C5.89073 28.8387 5.78673 28.2733 5.67473 27.6787C5.54406 27.7187 5.44806 27.7373 5.36273 27.7747C3.99473 28.3507 2.62673 28.932 1.25606 29.508C1.10406 29.572 0.946728 29.6387 0.786728 29.6707C0.373394 29.7507 -0.055939 29.412 0.0133943 29.0333C0.296061 27.4653 0.464061 25.8653 1.10406 24.3827C2.01606 22.268 3.25339 20.38 5.00539 18.852C5.14406 18.732 5.23739 18.5 5.25873 18.3107C5.71739 14.276 6.77873 10.4093 8.52273 6.74267C9.49073 4.70533 10.7067 2.804 11.9974 0.953333C12.4027 0.374667 12.9681 0.356 13.3601 0.9C15.2534 3.532 16.8534 6.324 18.0161 9.36133C19.1281 12.268 19.8694 15.26 20.1574 18.3613C20.1761 18.556 20.3041 18.7827 20.4507 18.9187C22.0001 20.3267 23.2134 21.98 24.0987 23.876C24.6641 25.084 24.9147 26.38 25.1334 27.684C25.2027 28.1 25.2827 28.5133 25.3574 28.9293C25.4614 29.5107 24.9654 29.94 24.4161 29.7107C23.3014 29.2467 22.1947 28.756 21.0881 28.276C20.6614 28.092 20.2374 27.9053 19.7761 27.7053L19.7707 27.6973ZM15.8214 12.948C15.8507 11.228 14.4187 9.72133 12.7414 9.7C10.8987 9.67867 9.46139 11.0707 9.4374 12.8947C9.41606 14.6413 10.8454 16.084 12.6214 16.1107C14.3441 16.1347 15.7921 14.7027 15.8214 12.948Z" fill="#CC5A3C"/>
<path d="M12.9627 48.5C11.8427 46.508 10.6827 44.628 9.70939 42.652C8.88806 40.9827 8.57606 39.14 8.74139 37.2707C8.83206 36.2493 9.08273 35.2387 9.28273 34.228C9.35206 33.884 9.44806 33.532 9.60006 33.2173C10.0054 32.38 10.7334 31.964 11.6321 31.924C12.6054 31.8813 13.5867 31.884 14.5574 31.964C15.5281 32.044 16.2187 32.6253 16.5094 33.548C16.9467 34.9453 17.3201 36.372 17.3174 37.8493C17.3121 40.236 16.6294 42.4387 15.3867 44.4733C14.6187 45.732 13.8694 47.0067 13.1121 48.2707C13.0854 48.316 13.0507 48.3587 12.9601 48.4947L12.9627 48.5ZM13.0214 39.1347C13.3761 38.5373 13.6961 38.02 13.9921 37.4893C14.6561 36.292 14.7334 35.0253 14.3841 33.7213C14.2321 33.1587 13.9654 32.964 13.3761 32.9613C13.0774 32.9613 12.7761 32.9533 12.4774 32.9613C12.0934 32.9747 11.8001 33.1587 11.6987 33.5267C11.5654 34.004 11.4534 34.4947 11.3974 34.988C11.2161 36.6227 12.2187 37.7987 13.0214 39.132V39.1347Z" fill="black"/>
</g>
<defs>
<clipPath id="clip0_252_68">
<rect width="25.368" height="48" fill="white" transform="translate(0 0.5)"/>
</clipPath>
</defs>
</svg>
