<svg width="48" height="33" viewBox="0 0 48 33" fill="none" xmlns="http://www.w3.org/2000/svg">
<g clip-path="url(#clip0_252_106)">
<path d="M31.62 21.29C31.51 21.19 31.39 21.09 31.26 20.99C30.24 20.19 29.23 19.4 28.2 18.61C28.01 18.46 27.93 18.3 28.01 18.07C28.02 18.03 28.01 17.98 28.04 17.94C28.39 17.06 28.17 16.26 27.78 15.45C27.53 14.94 27.43 14.36 27.26 13.81C27.22 13.7 27.18 13.56 27.09 13.51C26.36 13.08 26.08 12.37 25.92 11.59C25.81 11.06 25.64 10.47 25.96 10.01C26.3 9.52 26.22 9.07 26.13 8.58C25.94 7.58 25.9 6.57 26.05 5.58C26.18 4.69 26.51 3.87 27.35 3.37C27.44 3.31 27.51 3.19 27.56 3.08C28.26 1.57 29.47 0.76 31.08 0.67C33.53 0.53 35.58 1.46 37.18 3.31C38.07 4.33 38.31 5.59 38.23 6.91C38.18 7.7 38.07 8.49 37.99 9.28C37.99 9.38 37.97 9.52 38.03 9.58C38.51 10.09 38.54 10.7 38.38 11.32C38.26 11.8 38.09 12.27 37.9 12.72C37.8 12.94 37.63 13.18 37.43 13.3C37.05 13.51 36.97 13.85 36.87 14.22C36.69 14.84 36.51 15.48 36.24 16.07C36.04 16.5 35.99 16.9 36.1 17.34C36.12 17.42 36.11 17.5 36.14 17.57C36.42 18.22 36.13 18.63 35.61 19.01C34.7 19.67 33.81 20.37 32.91 21.05C32.6 21.28 32.6 21.28 32.86 21.57C33.09 21.82 33.3 22.1 33.52 22.36C33.65 22.51 33.63 22.64 33.52 22.8C33.29 23.1 33.07 23.4 32.89 23.73C32.83 23.84 32.82 24.04 32.87 24.15C33.49 25.31 33.78 26.56 34.01 27.84C34.12 28.41 34.19 28.99 34.28 29.57C34.29 29.64 34.32 29.71 34.41 29.78C34.46 29.6 34.52 29.42 34.57 29.23C35.36 26.53 36.17 23.84 36.93 21.13C37.12 20.44 37.14 19.69 37.24 18.97C37.24 18.92 37.26 18.87 37.27 18.79C38.09 19.08 38.89 19.35 39.69 19.63C40.88 20.05 42.07 20.45 43.25 20.88C44.6 21.37 45.52 22.33 46.18 23.57C46.84 24.8 47.08 26.14 47.28 27.5C47.51 29.04 47.76 30.58 47.99 32.11C47.99 32.17 47.99 32.24 47.99 32.33H16.24C16.35 31.57 16.45 30.84 16.56 30.11C16.8 28.59 16.98 27.07 17.3 25.57C17.62 24.02 18.33 22.65 19.61 21.66C20.05 21.32 20.56 21.05 21.08 20.85C22.8 20.21 24.53 19.62 26.26 19.02C26.5 18.94 26.74 18.88 27.01 18.8C26.97 20.86 27.75 22.69 28.28 24.57C28.74 26.19 29.23 27.81 29.7 29.43C29.74 29.57 29.8 29.71 29.9 29.84C30.01 29.18 30.11 28.53 30.22 27.87C30.42 26.73 30.61 25.56 31.18 24.54C31.48 24 31.37 23.65 31.06 23.23C30.97 23.11 30.92 22.94 30.81 22.84C30.53 22.59 30.64 22.38 30.83 22.16C31.07 21.88 31.32 21.6 31.62 21.27V21.29Z" fill="black"/>
<path d="M22.53 12.56C21.88 12.56 21.26 12.56 20.65 12.56C15.33 12.56 10.01 12.56 4.69001 12.56C3.57001 12.56 2.46001 12.56 1.34001 12.56C1.16001 12.56 1.10001 12.49 1.12001 12.33C1.12001 12.31 1.12001 12.29 1.12001 12.26C1.15001 11.49 1.15001 11.51 1.88001 11.25C3.70001 10.58 5.52001 9.89 7.34001 9.22C8.72001 8.71 10.1 8.21 11.47 7.7C11.76 7.59 12.02 7.6 12.32 7.72C13.99 8.37 15.66 8.99 17.34 9.61C18.98 10.23 20.63 10.84 22.27 11.45C22.47 11.52 22.55 11.63 22.53 11.84C22.51 12.06 22.53 12.28 22.53 12.57V12.56Z" fill="#CC5A3C"/>
<path d="M0 28.29C0.12 27.96 0.24 27.65 0.35 27.34C0.59 26.68 0.81 26.01 1.06 25.35C1.09 25.26 1.23 25.15 1.33 25.14C1.75 25.12 2.17 25.13 2.59 25.13C7.03 25.13 11.48 25.13 15.92 25.13C16.04 25.13 16.16 25.13 16.27 25.13C16.09 26.19 15.92 27.23 15.75 28.29H0Z" fill="#CC5A3C"/>
<path d="M1.90002 13.4H21.83C21.69 13.74 21.58 14.05 21.44 14.35C21.41 14.41 21.27 14.43 21.18 14.43C15.14 14.43 9.11002 14.43 3.07002 14.43C3.00002 14.43 2.94002 14.43 2.87002 14.43C2.12002 14.43 1.91002 14.2 1.91002 13.4H1.90002Z" fill="black"/>
<path d="M10.46 24.32H8.21002C8.21002 24.19 8.21002 24.08 8.21002 23.96C8.21002 21.17 8.21002 18.39 8.21002 15.6C8.21002 15.33 8.28002 15.23 8.56002 15.24C9.10002 15.26 9.64002 15.24 10.18 15.24C10.38 15.24 10.47 15.28 10.47 15.52C10.47 18.25 10.47 20.98 10.47 23.71C10.47 23.91 10.47 24.1 10.47 24.33L10.46 24.32Z" fill="black"/>
<path d="M3.28003 24.3C3.28003 23.61 3.28003 22.95 3.28003 22.28C3.28003 20.13 3.28003 17.97 3.28003 15.82C3.28003 15.23 3.28003 15.23 3.90003 15.23C4.34003 15.23 4.78003 15.23 5.23003 15.23C5.41003 15.23 5.50003 15.27 5.50003 15.49C5.50003 17.63 5.51003 19.78 5.52003 21.92C5.52003 22.7 5.52003 23.49 5.52003 24.29H3.28003V24.3Z" fill="black"/>
<path d="M13.25 15.26H15.37V24.32H13.25V15.26Z" fill="black"/>
<path d="M20.4 15.24C20.4 16.81 20.4 18.33 20.4 19.84C20.4 19.92 20.33 20.04 20.26 20.06C19.48 20.3 18.92 20.86 18.34 21.38C18.3 21.42 18.26 21.45 18.17 21.53C18.17 21.37 18.15 21.27 18.15 21.17C18.15 19.41 18.16 17.66 18.17 15.9C18.17 15.23 18.17 15.23 18.84 15.23C19.34 15.23 19.85 15.23 20.39 15.23L20.4 15.24Z" fill="black"/>
</g>
<defs>
<clipPath id="clip0_252_106">
<rect width="48" height="31.68" fill="white" transform="translate(0 0.660004)"/>
</clipPath>
</defs>
</svg>
