<svg width="143" height="48" viewBox="0 0 143 48" fill="none" xmlns="http://www.w3.org/2000/svg">
<g clip-path="url(#clip0_252_228)">
<path d="M33.1323 0.237061C33.1323 1.06409 33.1323 1.82002 33.1323 2.57359C33.1323 2.74183 33.0391 2.75842 32.9005 2.75605C31.1177 2.74183 29.3349 2.72288 27.5497 2.72288C23.1787 2.71814 18.8077 2.72288 14.4344 2.72288C11.7888 2.72288 9.14329 2.71814 6.49537 2.70866C5.32435 2.70392 4.24893 2.92904 3.43161 3.85085C2.92258 4.42432 2.61668 5.0831 2.61429 5.85325C2.6119 6.49781 2.54499 7.14711 2.78636 7.77745C3.29778 9.1187 4.51181 9.93151 6.01979 9.92914C10.1446 9.91966 14.2671 9.91018 18.3919 9.90781C23.1094 9.90544 27.8293 9.90781 32.5468 9.90781C32.7309 9.90781 32.9173 9.90781 33.1395 9.90781V10.7491C33.1395 21.7587 33.1395 32.7659 33.1395 43.7756C33.1395 44.631 33.1395 45.4865 33.1323 46.342C33.1252 47.342 32.5946 47.8586 31.5885 47.8562C29.3779 47.8515 27.1673 47.8443 24.9568 47.8443C19.4936 47.8443 14.0329 47.8443 8.56973 47.842C7.79543 47.842 7.02352 47.842 6.24921 47.8349C3.26671 47.8064 0.640297 45.6026 0.181451 42.6784C0.038061 41.7613 0.0165526 40.8206 0.00938316 39.8893C-0.0121253 36.9224 -0.00256597 33.9532 -0.00495579 30.9863C-0.00495579 26.3891 -0.00973544 21.7895 -0.00495579 17.1923C-0.000176142 13.5477 0.0046035 9.9007 0.0308916 6.2561C0.0571796 3.50014 1.77546 1.17546 4.3278 0.502467C5.04474 0.315261 5.81427 0.253648 6.55989 0.251279C11.1603 0.229951 15.7583 0.2418 20.3587 0.2418C24.2255 0.2418 28.0898 0.23943 31.9566 0.237061C32.3413 0.237061 32.7261 0.237061 33.1323 0.237061ZM2.85088 11.6732C2.85088 11.7206 2.85088 11.8154 2.85088 11.9102C2.85088 21.9648 2.85088 32.0219 2.85088 42.0765C2.85088 42.2045 2.85566 42.3324 2.88195 42.4557C3.19024 43.9533 4.71256 45.1571 6.25638 45.1453C8.30685 45.131 10.3597 45.1192 12.4126 45.1192C18.3202 45.1216 24.2279 45.1287 30.1355 45.1429C30.3649 45.1429 30.4199 45.0742 30.4175 44.8585C30.4079 43.8467 30.4127 42.8348 30.4103 41.8229C30.4032 39.1594 30.3912 36.4958 30.3912 33.8323C30.3912 29.9602 30.4032 26.0881 30.4032 22.216C30.4032 19.0904 30.396 15.9648 30.3912 12.8391C30.3912 12.7064 30.3912 12.5737 30.3912 12.441C30.341 12.4292 30.3124 12.4173 30.2861 12.4173C28.998 12.4173 27.7098 12.4244 26.4193 12.4244C19.6394 12.4244 12.8595 12.4244 6.07954 12.4197C5.68522 12.4197 5.27656 12.4126 4.90135 12.3154C4.21786 12.1401 3.55349 11.8936 2.85088 11.6685V11.6732Z" fill="#00239D"/>
<path d="M38.2635 4.11621V44.2352H34.5067V8.59021C34.349 8.59021 34.2223 8.59021 34.098 8.59021C25.0095 8.59021 15.9186 8.59021 6.83013 8.59021C5.66629 8.59021 4.79161 7.99304 4.42119 7.01435C3.95278 5.77974 4.99236 4.26787 6.34739 4.17782C7.38457 4.10673 8.42653 4.12569 9.46611 4.12332C13.5192 4.11858 17.5724 4.11858 21.6255 4.12095C25.4708 4.12095 29.316 4.12806 33.1612 4.12806C34.7863 4.12806 36.4114 4.11858 38.0364 4.11621C38.1129 4.11621 38.1918 4.11621 38.2659 4.11621H38.2635Z" fill="#00239D"/>
<path d="M10.9526 20.69C11.1127 20.7634 11.28 20.8179 11.4281 20.908C11.7484 21.1047 12.0567 21.3179 12.3697 21.5241C12.6015 21.6758 12.8358 21.6971 13.101 21.5857C13.5933 21.3795 14.0904 21.1876 14.5923 21.0051C14.8074 20.9269 14.8934 20.7848 14.934 20.5739C15.0129 20.1592 15.1061 19.7492 15.1993 19.3369C15.2805 18.9672 15.5076 18.7421 15.8947 18.7279C16.3392 18.7113 16.7837 18.7042 17.2282 18.7207C17.5748 18.7326 17.7875 18.9245 17.8568 19.2776C17.9404 19.7113 18.0599 20.1378 18.1364 20.5715C18.1818 20.825 18.3013 20.9577 18.5474 21.0478C19.0302 21.2231 19.5034 21.4222 19.9718 21.6331C20.2131 21.7421 20.4258 21.7397 20.6457 21.6023C20.9707 21.3961 21.3029 21.1995 21.6255 20.9885C22.0987 20.6781 22.3544 20.6781 22.7655 21.0525C23.0714 21.3322 23.3558 21.6331 23.6378 21.9364C23.8504 22.1639 23.8815 22.4127 23.6951 22.6853C23.4394 23.0597 23.1813 23.4341 22.9662 23.8298C22.8778 23.9933 22.8252 24.2398 22.885 24.4033C23.1024 24.991 23.3605 25.5644 23.633 26.1308C23.6903 26.2493 23.8624 26.3512 24.001 26.3915C24.4383 26.5123 24.8852 26.6047 25.3297 26.6995C25.6404 26.7659 25.8364 26.9626 25.8579 27.2588C25.8937 27.7161 25.9009 28.1759 25.877 28.6332C25.8603 28.9816 25.6309 29.2138 25.2915 29.2944C24.8876 29.3915 24.479 29.4673 24.0679 29.5242C23.8027 29.5598 23.6449 29.6759 23.5493 29.9247C23.3629 30.4105 23.1646 30.8915 22.9495 31.3655C22.775 31.747 22.8276 32.0787 23.0642 32.4152C23.2841 32.728 23.4776 33.0598 23.6784 33.3868C23.8146 33.6072 23.8003 33.8394 23.6282 34.0148C23.253 34.4011 22.8587 34.7707 22.4548 35.1286C22.266 35.2968 22.0461 35.2731 21.8287 35.1262C21.4702 34.8821 21.0998 34.657 20.7317 34.4248C20.5095 34.2849 20.2753 34.2541 20.0243 34.356C19.4938 34.5693 18.9489 34.7565 18.4327 35.0006C18.263 35.0812 18.1005 35.285 18.0384 35.4651C17.8854 35.9082 17.7922 36.3726 17.6775 36.8276C17.613 37.0812 17.4386 37.2163 17.1852 37.2186C16.681 37.221 16.1791 37.2115 15.6749 37.1926C15.3929 37.1807 15.228 37.0219 15.1658 36.7423C15.0726 36.311 14.9603 35.8821 14.8719 35.4508C14.8121 35.1665 14.6687 34.984 14.3867 34.8774C13.8514 34.6759 13.3304 34.4342 12.7927 34.2399C12.6541 34.1902 12.4486 34.1996 12.3195 34.2684C11.9802 34.4461 11.6695 34.6759 11.3421 34.8774C10.8235 35.1973 10.6538 35.1973 10.2093 34.7921C9.91061 34.5219 9.65012 34.2115 9.38006 33.9105C9.17693 33.6854 9.16259 33.4295 9.31076 33.1736C9.51151 32.8252 9.71942 32.4792 9.93928 32.1404C10.1352 31.8394 10.1902 31.5503 10.0229 31.2043C9.81023 30.7636 9.66923 30.2873 9.45415 29.8465C9.38007 29.6925 9.20561 29.5361 9.0431 29.4816C8.6679 29.3607 8.27597 29.292 7.88643 29.2233C7.49449 29.1545 7.23878 28.9436 7.22205 28.5503C7.20294 28.0645 7.21727 27.5763 7.26029 27.0929C7.28897 26.7611 7.53034 26.5858 7.85297 26.5194C8.25924 26.4365 8.66551 26.3536 9.07178 26.2659C9.28686 26.2185 9.43742 26.1024 9.52584 25.8891C9.7481 25.3654 9.9823 24.8441 10.2237 24.3298C10.324 24.1142 10.2308 23.9507 10.1257 23.7824C9.88193 23.3914 9.63578 22.9981 9.38484 22.6118C9.22951 22.3701 9.24384 22.1331 9.43025 21.9364C9.78156 21.5668 10.1496 21.2066 10.5272 20.863C10.6276 20.7705 10.7925 20.7492 10.955 20.6829L10.9526 20.69ZM21.0759 28.0123C21.0352 25.4412 19.0541 23.4933 16.5471 23.4886C13.9279 23.4838 11.9157 25.5929 11.9635 28.055C12.0089 30.311 13.8371 32.5385 16.5997 32.4792C19.0756 32.4271 21.1117 30.4105 21.0735 28.0123H21.0759Z" fill="#00239D"/>
</g>
<path d="M55.5908 33.8418L49.1025 16.5581H48.9921C49.0289 16.9262 49.0565 17.3956 49.0749 17.9662C49.1117 18.5368 49.1393 19.1626 49.1577 19.8437C49.1761 20.5063 49.1853 21.1873 49.1853 21.8868V33.8418H46.8937V14.1285H50.5658L56.64 30.2801H56.7504L62.935 14.1285H66.5795V33.8418H64.1222V21.7211C64.1222 21.0769 64.1314 20.4419 64.1498 19.8161C64.1682 19.1718 64.1958 18.5736 64.2326 18.0214C64.2694 17.4508 64.297 16.9723 64.3155 16.5857H64.205L57.6339 33.8418H55.5908ZM77.2154 18.7945C79.0193 18.7945 80.3538 19.1902 81.2189 19.9817C82.084 20.7732 82.5165 22.034 82.5165 23.7642V33.8418H80.7495L80.2801 31.7435H80.1697C79.7463 32.2772 79.3046 32.7282 78.8444 33.0963C78.4027 33.4461 77.8873 33.7037 77.2983 33.8694C76.7277 34.0351 76.0282 34.1179 75.1999 34.1179C74.3164 34.1179 73.5157 33.9614 72.7979 33.6485C72.0984 33.3356 71.5463 32.8571 71.1413 32.2128C70.7364 31.5502 70.5339 30.7219 70.5339 29.7279C70.5339 28.2554 71.1137 27.1234 72.2733 26.332C73.4329 25.5221 75.2183 25.0803 77.6296 25.0067L80.1421 24.9239V24.0403C80.1421 22.8071 79.8752 21.9512 79.3414 21.4726C78.8076 20.9941 78.0529 20.7548 77.0774 20.7548C76.3043 20.7548 75.5681 20.8744 74.8686 21.1137C74.1692 21.3346 73.5157 21.5923 72.9083 21.8868L72.1629 20.0645C72.8071 19.7148 73.571 19.4203 74.4545 19.181C75.338 18.9233 76.2583 18.7945 77.2154 18.7945ZM77.9333 26.6909C76.0927 26.7645 74.8134 27.059 74.0956 27.5744C73.3961 28.0898 73.0464 28.8168 73.0464 29.7556C73.0464 30.5838 73.2949 31.1913 73.7918 31.5778C74.3072 31.9643 74.9607 32.1576 75.7521 32.1576C77.0038 32.1576 78.0437 31.8171 78.872 31.136C79.7003 30.4366 80.1145 29.369 80.1145 27.9333V26.608L77.9333 26.6909ZM94.2105 18.7669C95.9776 18.7669 97.312 19.1994 98.2139 20.0645C99.1159 20.9112 99.5668 22.2917 99.5668 24.206V33.8418H97.1648V24.3717C97.1648 23.1752 96.8979 22.2825 96.3641 21.6935C95.8303 21.1045 94.9928 20.81 93.8516 20.81C92.2134 20.81 91.0814 21.2702 90.4556 22.1905C89.8298 23.1108 89.5169 24.4361 89.5169 26.1663V33.8418H87.0872V19.043H89.0475L89.4064 21.0585H89.5445C89.8758 20.5431 90.2807 20.1198 90.7593 19.7884C91.2563 19.4387 91.7993 19.181 92.3883 19.0154C92.9773 18.8497 93.5847 18.7669 94.2105 18.7669ZM116.524 19.043V33.8418H114.536L114.177 31.8815H114.066C113.754 32.3969 113.349 32.8202 112.852 33.1516C112.355 33.4829 111.812 33.7222 111.223 33.8694C110.634 34.0351 110.017 34.1179 109.373 34.1179C108.195 34.1179 107.201 33.9338 106.391 33.5657C105.599 33.1792 105.001 32.5902 104.596 31.7987C104.191 31.0072 103.989 29.9856 103.989 28.734V19.043H106.446V28.5683C106.446 29.7464 106.713 30.6299 107.247 31.2189C107.781 31.8079 108.609 32.1024 109.732 32.1024C110.836 32.1024 111.701 31.8999 112.327 31.495C112.971 31.0716 113.422 30.4642 113.68 29.6727C113.956 28.8628 114.094 27.8873 114.094 26.7461V19.043H116.524ZM126.827 18.7945C128.631 18.7945 129.965 19.1902 130.83 19.9817C131.695 20.7732 132.128 22.034 132.128 23.7642V33.8418H130.361L129.891 31.7435H129.781C129.358 32.2772 128.916 32.7282 128.456 33.0963C128.014 33.4461 127.499 33.7037 126.909 33.8694C126.339 34.0351 125.639 34.1179 124.811 34.1179C123.928 34.1179 123.127 33.9614 122.409 33.6485C121.71 33.3356 121.157 32.8571 120.753 32.2128C120.348 31.5502 120.145 30.7219 120.145 29.7279C120.145 28.2554 120.725 27.1234 121.885 26.332C123.044 25.5221 124.83 25.0803 127.241 25.0067L129.753 24.9239V24.0403C129.753 22.8071 129.486 21.9512 128.953 21.4726C128.419 20.9941 127.664 20.7548 126.689 20.7548C125.916 20.7548 125.179 20.8744 124.48 21.1137C123.78 21.3346 123.127 21.5923 122.52 21.8868L121.774 20.0645C122.418 19.7148 123.182 19.4203 124.066 19.181C124.949 18.9233 125.87 18.7945 126.827 18.7945ZM127.545 26.6909C125.704 26.7645 124.425 27.059 123.707 27.5744C123.007 28.0898 122.658 28.8168 122.658 29.7556C122.658 30.5838 122.906 31.1913 123.403 31.5778C123.918 31.9643 124.572 32.1576 125.363 32.1576C126.615 32.1576 127.655 31.8171 128.483 31.136C129.312 30.4366 129.726 29.369 129.726 27.9333V26.608L127.545 26.6909ZM139.128 33.8418H136.698V12.8584H139.128V33.8418Z" fill="#123559"/>
<defs>
<clipPath id="clip0_252_228">
<rect width="38.2635" height="47.6168" fill="white" transform="translate(0 0.237061)"/>
</clipPath>
</defs>
</svg>
